<svg width="96" height="96" xmlns="http://www.w3.org/2000/svg" xmlns:xlink="http://www.w3.org/1999/xlink" xml:space="preserve" overflow="hidden"><g transform="translate(-876 -452)"><path d="M950.4 525.3 932.4 519.1 932.3 519.1 925.1 516.6 958.8 472.1 950.4 525.3ZM927.9 521.9 921.3 528.5 923.1 520.3 927.9 521.9 927.9 521.9ZM919.9 516.8C919.7 517 919.6 517.3 919.5 517.6L919.2 518.9 917.2 528 912.4 514 949.8 478 921.1 515.3 919.9 516.8ZM891 505 949.6 473.8 909.5 511.3 891 505ZM963.2 463.4C962.6 462.9 961.7 462.9 961 463.3L885.1 503.6C884.4 504 884 504.7 884 505.5 884 506.3 884.6 507 885.3 507.2L906.1 514.3 908.7 515.2 909.3 516.9 915.5 535.5 915.5 535.6 915.5 535.7C915.7 536.3 916.3 536.8 917 537 917.7 537.2 918.4 537 918.9 536.5L919 536.4 919.6 535.8 932.2 523.4 951.4 530C952 530.2 952.6 530.1 953.1 529.8 953.6 529.5 954 529 954.1 528.4L964.1 465.4C964.2 464.5 963.8 463.8 963.2 463.4Z" fill="#FFFFFF"/></g></svg>