<svg width="96" height="96" xmlns="http://www.w3.org/2000/svg" xmlns:xlink="http://www.w3.org/1999/xlink" xml:space="preserve" overflow="hidden"><g transform="translate(-595 -571)"><path d="M615.9 628.6 635.1 609.4 624.4 609.4C627.9 602.6 635 597.9 643.2 597.9 648.5 597.9 653.4 599.9 657.1 603.2L676.6 603.2C670.7 590.6 657.9 582 643.2 582 626.1 582 611.7 593.6 607.5 609.4L596.7 609.4 615.9 628.6Z" fill="#56525A" fill-opacity="0.89804"/><path d="M689.6 628.6 670.4 609.4 651.2 628.6 662 628.6C658.5 635.4 651.4 640.1 643.2 640.1 637.9 640.1 633 638.1 629.3 634.8L609.7 634.8C615.7 647.4 628.4 656 643.2 656 660.3 656 674.7 644.4 678.9 628.6L689.6 628.6Z" fill="#56525A" fill-opacity="0.89804"/></g></svg>