<svg width="96" height="96" xmlns="http://www.w3.org/2000/svg" xmlns:xlink="http://www.w3.org/1999/xlink" xml:space="preserve" overflow="hidden"><g transform="translate(-668 -276)"><path d="M758.6 356 719.5 288C718 285.3 714.1 285.3 712.6 288L673.4 356C671.9 358.7 673.8 362 676.9 362L716 362 755.1 362C758.2 362 760.1 358.7 758.6 356ZM713 304 719 304 719 339 713 339 713 304ZM716 353C713.2 353 711 350.8 711 348 711 345.2 713.2 343 716 343 718.8 343 721 345.2 721 348 721 350.8 718.8 353 716 353Z" fill="#80350E"/></g></svg>