<svg width="111" height="111" xmlns="http://www.w3.org/2000/svg" xmlns:xlink="http://www.w3.org/1999/xlink" xml:space="preserve" overflow="hidden"><g transform="translate(-1138 -341)"><path d="M1235.94 387.396C1235.35 386.665 1234.62 386.05 1233.77 385.592L1209.01 372.3C1208.61 373.722 1208.2 375.003 1207.8 376.225 1207.32 377.679 1206.85 379.046 1206.43 380.486 1205.87 382.403 1205.38 384.463 1205.02 387.107 1204.84 388.452 1203.61 389.395 1202.27 389.215 1200.92 389.035 1199.98 387.804 1200.16 386.464 1200.74 382.093 1201.71 378.982 1202.67 376.115 1203.16 374.634 1203.64 373.216 1204.09 371.662 1204.51 370.203 1204.9 368.617 1205.23 366.743 1205.26 366.6 1205.28 366.459 1205.3 366.313 1205.72 363.833 1206.04 360.83 1206.17 356.988 1206.18 356.814 1206.18 356.639 1206.18 356.465 1206.18 354.33 1205.73 352.313 1204.91 350.465 1204.08 348.623 1202.9 346.955 1201.43 345.549 1198.49 342.739 1194.46 341 1190.1 341 1185.65 341 1181.64 342.798 1178.73 345.708 1175.82 348.623 1174.02 352.628 1174.02 357.076 1174.02 359.544 1174.46 362.099 1175.19 364.775 1175.91 367.451 1176.92 370.24 1178.01 373.157 1178.59 374.731 1179.2 376.343 1179.8 378 1180.29 379.352 1180.77 380.737 1181.22 382.148 1182.26 385.406 1183.15 388.833 1183.63 392.458 1183.81 393.798 1182.87 395.029 1181.53 395.209 1180.18 395.389 1178.95 394.447 1178.77 393.101 1178.36 390.06 1177.63 387.107 1176.72 384.208L1153.64 394.789C1152.44 395.341 1151.44 396.2 1150.73 397.248L1172.27 418.478 1235.94 387.396Z" fill="#31BBDE"/><path d="M1169.66 422.031 1149.5 402.158 1149.5 414.658 1169.66 438.853Z" fill="#31BBDE"/><path d="M1237.49 391.488 1174.02 422.473 1174.02 422.473 1174.02 441.207 1174.02 441.207 1237.5 406.789 1237.5 391.836C1237.5 391.722 1237.49 391.602 1237.49 391.488Z" fill="#31BBDE"/><path d="M1171.7 446.025 1151.39 422.01 1151.43 427.22C1151.43 428.227 1151.79 429.201 1152.45 429.971L1170.24 450.982C1171.12 452.021 1172.61 452.301 1173.8 451.652L1231.07 419.966C1232.47 419.208 1233.34 417.737 1233.33 416.145L1233.3 412.65 1171.7 446.025Z" fill="#31BBDE"/></g></svg>