<svg width="413" height="356" xmlns="http://www.w3.org/2000/svg" xmlns:xlink="http://www.w3.org/1999/xlink" xml:space="preserve" overflow="hidden"><g transform="translate(-3322 -1864)"><g><g><g><path d="M3515.24 2110.85 3515.24 1906.15 3590.5 1906.15 3590.5 1969.36 3665.76 1969.36 3665.76 2110.85 3515.24 2110.85ZM3608.56 1913.67 3646.19 1951.3 3608.56 1951.3 3608.56 1913.67ZM3608.56 1888.08 3497.18 1888.08 3497.18 2128.92 3683.82 2128.92 3683.82 1954.31 3608.56 1888.08Z" fill="#747474"/><path d="M3533.3 1999.47 3647.7 1999.47 3647.7 2011.51 3533.3 2011.51Z" fill="#747474"/><path d="M3533.3 1975.39 3572.44 1975.39 3572.44 1987.43 3533.3 1987.43Z" fill="#747474"/><path d="M3533.3 2023.55 3647.7 2023.55 3647.7 2035.59 3533.3 2035.59Z" fill="#747474"/><path d="M3533.3 2047.64 3647.7 2047.64 3647.7 2059.68 3533.3 2059.68Z" fill="#747474"/><path d="M3533.3 2071.72 3647.7 2071.72 3647.7 2083.76 3533.3 2083.76Z" fill="#747474"/></g></g></g><g><g><g><path d="M127.5 159.375C109.969 159.375 95.625 145.031 95.625 127.5 95.625 109.969 109.969 95.625 127.5 95.625 145.031 95.625 159.375 109.969 159.375 127.5 159.375 145.031 145.031 159.375 127.5 159.375ZM199.219 107.578C197.625 101.734 195.234 96.1563 192.313 91.1094L198.953 71.1875 183.813 56.0469 163.891 62.6875C158.578 59.7656 153 57.375 147.156 55.7813L138.125 37.1875 116.875 37.1875 107.578 55.7813C101.734 57.375 96.1563 59.7656 91.1094 62.6875L71.1875 56.0469 56.0469 71.1875 62.6875 91.1094C59.7656 96.4219 57.375 102 55.7813 107.844L37.1875 116.875 37.1875 138.125 55.7813 147.422C57.375 153.266 59.7656 158.844 62.6875 163.891L56.0469 183.813 71.1875 198.953 91.1094 192.313C96.4219 195.234 102 197.625 107.844 199.219L117.141 217.813 138.391 217.813 147.688 199.219C153.531 197.625 159.109 195.234 164.156 192.313L184.078 198.953 199.219 183.813 192.578 163.891C195.5 158.578 197.891 153 199.484 147.156L218.078 137.859 218.078 116.609 199.219 107.578Z" fill="#AEAEAE" transform="matrix(1 0 0 1.00392 3322 1964)"/></g></g></g></g></svg>