<svg width="96" height="96" xmlns="http://www.w3.org/2000/svg" xmlns:xlink="http://www.w3.org/1999/xlink" xml:space="preserve" overflow="hidden"><g transform="translate(-805 -456)"><path d="M879 513C876.8 513 875 511.2 875 509 875 506.8 876.8 505 879 505 881.2 505 883 506.8 883 509 883 511.2 881.2 513 879 513ZM889 499 887 499 887 488C887 485.8 885.2 484 883 484L827 484C825.9 484 825 483.1 825 482 825 480.9 825.9 480 827 480L883 480 883 478C883 475.8 881.2 474 879 474L827 474C822.6 474 819 477.6 819 482L819 526C819 530.4 822.6 534 827 534L883 534C885.2 534 887 532.2 887 530L887 519 889 519C890.1 519 891 518.1 891 517L891 501C891 499.9 890.1 499 889 499Z" fill="#C04F15"/></g></svg>