<svg width="96" height="96" xmlns="http://www.w3.org/2000/svg" xmlns:xlink="http://www.w3.org/1999/xlink" xml:space="preserve" overflow="hidden"><g transform="translate(-691 -456)"><path d="M724 483.586 720.707 480.293 719.293 481.707 724 486.414 733.707 476.707 732.293 475.293 724 483.586Z" stroke="#8ED973" stroke-width="2" fill="#8ED973"/><path d="M740 481 759 481 759 483 740 483Z" stroke="#8ED973" stroke-width="2" fill="#8ED973"/><path d="M724 498.586 720.707 495.293 719.293 496.707 724 501.414 733.707 491.707 732.293 490.293 724 498.586Z" stroke="#8ED973" stroke-width="2" fill="#8ED973"/><path d="M740 496 759 496 759 498 740 498Z" stroke="#8ED973" stroke-width="2" fill="#8ED973"/><path d="M724 513.586 720.707 510.293 719.293 511.707 724 516.414 733.707 506.707 732.293 505.293 724 513.586Z" stroke="#8ED973" stroke-width="2" fill="#8ED973"/><path d="M740 511 759 511 759 513 740 513Z" stroke="#8ED973" stroke-width="2" fill="#8ED973"/><path d="M724 528.586 720.707 525.293 719.293 526.707 724 531.414 733.707 521.707 732.293 520.293 724 528.586Z" stroke="#8ED973" stroke-width="2" fill="#8ED973"/><path d="M740 526 759 526 759 528 740 528Z" stroke="#8ED973" stroke-width="2" fill="#8ED973"/><path d="M709 544 769 544 769 464 709 464ZM711 466 767 466 767 542 711 542Z" stroke="#8ED973" stroke-width="2" fill="#8ED973"/></g></svg>