<svg width="432" height="410" xmlns="http://www.w3.org/2000/svg" xmlns:xlink="http://www.w3.org/1999/xlink" xml:space="preserve" overflow="hidden"><g transform="translate(-1672 -730)"><path d="M1672 935C1672 821.782 1768.71 730 1888 730 2007.29 730 2104 821.782 2104 935 2104 1048.22 2007.29 1140 1888 1140 1768.71 1140 1672 1048.22 1672 935Z" fill="#F2AA84" fill-rule="evenodd"/><g><g><g><path d="M1853.62 980.75 1922.37 980.75 1922.37 1028.88 1853.62 1028.88Z" fill="#FFFFFF"/><path d="M1853.62 795.125 1922.37 795.125 1922.37 843.25 1853.62 843.25Z" fill="#FFFFFF"/><path d="M1750.5 980.75 1819.25 980.75 1819.25 1028.88 1750.5 1028.88Z" fill="#FFFFFF"/><path d="M1956.75 980.75 2025.5 980.75 2025.5 1028.88 1956.75 1028.88Z" fill="#FFFFFF"/><path d="M1894.87 905.125 1894.87 857 1881.12 857 1881.12 905.125 1778 905.125 1778 967 1791.75 967 1791.75 918.875 1881.12 918.875 1881.12 967 1894.87 967 1894.87 918.875 1984.25 918.875 1984.25 967 1998 967 1998 905.125Z" fill="#FFFFFF"/></g></g></g></g></svg>