<svg width="432" height="410" xmlns="http://www.w3.org/2000/svg" xmlns:xlink="http://www.w3.org/1999/xlink" xml:space="preserve" overflow="hidden"><g transform="translate(-828 -707)"><path d="M828 912C828 798.782 924.707 707 1044 707 1163.29 707 1260 798.782 1260 912 1260 1025.22 1163.29 1117 1044 1117 924.707 1117 828 1025.22 828 912Z" fill="#0F9ED5" fill-rule="evenodd"/><g><g><g><path d="M1099 840.125C1099 870.501 1074.38 895.125 1044 895.125 1013.62 895.125 989 870.501 989 840.125 989 809.749 1013.62 785.125 1044 785.125 1074.38 785.125 1099 809.749 1099 840.125Z" fill="#FFFFFF"/><path d="M1154 1018.88 1154 963.875C1154 955.625 1149.88 947.375 1143 941.875 1127.88 929.5 1108.62 921.25 1089.38 915.75 1075.62 911.625 1060.5 908.875 1044 908.875 1028.88 908.875 1013.75 911.625 998.625 915.75 979.375 921.25 960.125 930.875 945 941.875 938.125 947.375 934 955.625 934 963.875L934 1018.88 1154 1018.88Z" fill="#FFFFFF"/></g></g></g></g></svg>