<svg width="432" height="410" xmlns="http://www.w3.org/2000/svg" xmlns:xlink="http://www.w3.org/1999/xlink" xml:space="preserve" overflow="hidden"><defs><clipPath id="clip0"><rect x="2539" y="722" width="432" height="410"/></clipPath></defs><g clip-path="url(#clip0)" transform="translate(-2539 -722)"><path d="M2539 927C2539 813.781 2635.71 722 2755 722 2874.29 722 2971 813.781 2971 927 2971 1040.22 2874.29 1132 2755 1132 2635.71 1132 2539 1040.22 2539 927Z" fill="#AEAEAE" fill-rule="evenodd"/><g><g><g><path d="M125.285 23.6667 158.715 23.6667 155.934 191.966 128.066 191.966 125.285 23.6667Z" fill="#FFFFFF" transform="matrix(1.16197 0 0 1 2590 783)"/><path d="M165.667 233.708C165.667 246.779 155.071 257.375 142 257.375 128.929 257.375 118.333 246.779 118.333 233.708 118.333 220.638 128.929 210.042 142 210.042 155.071 210.042 165.667 220.638 165.667 233.708Z" fill="#FFFFFF" transform="matrix(1.16197 0 0 1 2590 783)"/></g></g></g></g></svg>