<svg width='24' height='24' viewBox="0 0 100 100" xmlns="http://www.w3.org/2000/svg" xmlns:xlink="http://www.w3.org/1999/xlink" xml:space="preserve" overflow="hidden"><g transform="translate(-592 -312)"><path d="M630 380 650 380 650 394 630 394Z"/><path d="M630 326 650 326 650 340 630 340Z"/><path d="M600 380 620 380 620 394 600 394Z"/><path d="M660 380 680 380 680 394 660 394Z"/><path d="M642 358 642 344 638 344 638 358 608 358 608 376 612 376 612 362 638 362 638 376 642 376 642 362 668 362 668 376 672 376 672 358Z"/></g></svg>