<svg width="96" height="96" xmlns="http://www.w3.org/2000/svg" xmlns:xlink="http://www.w3.org/1999/xlink" xml:space="preserve" overflow="hidden"><g transform="translate(-603 -224)"><path d="M626 306 626 238 651 238 651 259 676 259 676 306 626 306ZM657 240.5 669.5 253 657 253 657 240.5ZM657 232 620 232 620 312 682 312 682 254 657 232Z" fill="#4E95D9"/><path d="M632 269 670 269 670 273 632 273Z" fill="#4E95D9"/><path d="M632 261 645 261 645 265 632 265Z" fill="#4E95D9"/><path d="M632 277 670 277 670 281 632 281Z" fill="#4E95D9"/><path d="M632 285 670 285 670 289 632 289Z" fill="#4E95D9"/><path d="M632 293 670 293 670 297 632 297Z" fill="#4E95D9"/></g></svg>