<svg width="96" height="96" xmlns="http://www.w3.org/2000/svg" xmlns:xlink="http://www.w3.org/1999/xlink" xml:space="preserve" overflow="hidden"><g transform="translate(-217 -224)"><path d="M291.4 297.3 273.4 291.1 273.3 291.1 266.1 288.6 299.8 244.1 291.4 297.3ZM268.9 293.9 262.3 300.5 264.1 292.3 268.9 293.9 268.9 293.9ZM260.9 288.8C260.7 289 260.6 289.3 260.5 289.6L260.2 290.9 258.2 300 253.4 286 290.8 250 262.1 287.3 260.9 288.8ZM232 277 290.6 245.8 250.5 283.3 232 277ZM304.2 235.4C303.6 234.9 302.7 234.9 302 235.3L226.1 275.6C225.4 276 225 276.7 225 277.5 225 278.3 225.6 279 226.3 279.2L247.1 286.3 249.7 287.2 250.3 288.9 256.5 307.5 256.5 307.6 256.5 307.7C256.7 308.3 257.3 308.8 258 309 258.7 309.2 259.4 309 259.9 308.5L260 308.4 260.6 307.8 273.2 295.4 292.4 302C293 302.2 293.6 302.1 294.1 301.8 294.6 301.5 295 301 295.1 300.4L305.1 237.4C305.2 236.5 304.8 235.8 304.2 235.4Z" fill="#47D45A"/></g></svg>