<svg width="96" height="96" xmlns="http://www.w3.org/2000/svg" xmlns:xlink="http://www.w3.org/1999/xlink" xml:space="preserve" overflow="hidden"><g transform="translate(-744 -88)"><path d="M752 108 752 164 832 164 832 108 752 108ZM793.4 142.9C792.6 143.7 791.4 143.7 790.6 142.9L761 114 823.1 114 793.4 142.9ZM777.5 135.7 758 155.3 758 116.6 777.5 135.7ZM780.4 138.5 787.9 145.8C789.1 146.9 790.6 147.5 792.1 147.5 793.6 147.5 795.1 146.9 796.3 145.8L803.8 138.5 823.2 158 760.9 158 780.4 138.5ZM806.5 135.7 826 116.7 826 155.2 806.5 135.7Z" fill="#46B1E1"/></g></svg>