<svg width="96" height="96" xmlns="http://www.w3.org/2000/svg" xmlns:xlink="http://www.w3.org/1999/xlink" xml:space="preserve" overflow="hidden"><g transform="translate(-379 -400)"><path d="M425.4 489.042C428.494 489.042 430.1 487.279 431.54 485.267 432.657 483.706 433.378 482.814 435.186 482.648 437.413 482.448 439.522 483.659 441.964 485.064 446.012 487.4 451.054 490.3 458.254 486.9 459.246 486.414 459.656 485.216 459.17 484.224 458.694 483.253 457.532 482.836 456.547 483.283 451.237 485.789 447.863 483.846 443.957 481.598 441.179 479.998 438.31 478.344 434.817 478.665 431.099 479.006 429.473 481.279 428.284 482.939 426.868 484.917 426.157 485.91 421.743 484.139 420.717 483.729 419.553 484.227 419.143 485.253 418.733 486.279 419.231 487.443 420.257 487.853 421.881 488.57 423.626 488.974 425.4 489.042Z" fill="#D86ECC"/><path d="M449.1 463.96C451.347 467.596 456.142 475.845 458.13 483.019 458.139 483.055 458.117 483.091 458.081 483.1 458.055 483.107 458.027 483.097 458.011 483.075 456.238 480.948 454.206 479.052 451.963 477.428L451.963 477.428C451.934 477.345 450.222 472.467 445.15 464.755 445.14 464.74 445.123 464.732 445.105 464.735 443.285 464.895 441.452 464.663 439.729 464.053 432.712 462.105 427.629 455.436 427.129 454.753 427.109 454.726 427.129 454.696 427.165 454.696 429.875 454.665 432.544 454.033 434.979 452.844 435.081 452.802 435.13 452.685 435.087 452.583 435.05 452.493 434.954 452.443 434.859 452.464L434.853 452.464C429.5 453.312 424.094 451.288 420.614 447.132 418.453 444.534 416.078 442.121 413.514 439.919 410.297 437.156 406.226 434.413 402.464 431.577 402.268 431.421 402.236 431.136 402.392 430.94 402.46 430.855 402.556 430.797 402.664 430.777 405.139 430.315 407.492 429.345 409.574 427.93 409.623 427.897 409.655 427.845 409.661 427.786 409.674 427.676 409.596 427.577 409.487 427.563 409.458 427.56 409.429 427.562 409.402 427.571 406.261 428.531 402.919 428.629 399.727 427.855 397.848 427.391 396.162 426.347 394.91 424.871 391.579 420.98 390.21 416.797 393.249 412.085 395.32 408.872 399.94 407.485 405.927 408.176 409.431 408.548 412.43 410.854 413.689 414.145 414.119 415.298 414.431 416.492 414.62 417.709 414.62 417.819 414.71 417.909 414.82 417.909 414.931 417.909 415.02 417.819 415.02 417.709 415.05 417.509 415.075 417.309 415.098 417.109 415.32 415.122 415.215 413.111 414.785 411.158 414.726 410.921 414.871 410.68 415.108 410.621 415.195 410.6 415.286 410.605 415.369 410.636 420.06 412.517 424.495 414.982 428.569 417.974 433.287 421.369 437.613 425.278 441.469 429.627 443.944 432.407 445.267 436.026 445.169 439.747 445.107 441.308 444.844 442.854 444.385 444.347 444.347 444.451 444.401 444.566 444.505 444.603 444.594 444.636 444.695 444.601 444.744 444.519 446.023 442.635 446.939 440.528 447.444 438.307L447.526 438.294C449.912 442.872 452.497 450.042 452.903 454.794 453.16 457.806 452.315 460.508 450.765 461.98 450.748 461.997 450.72 461.998 450.703 461.981 450.7 461.978 450.697 461.975 450.695 461.971 446.952 455.356 439.367 444.1 433.966 438.686 429.849 434.461 425.254 430.729 420.274 427.567 419.573 427.125 418.81 426.788 418.011 426.567 417.907 426.531 417.793 426.587 417.757 426.691 417.726 426.78 417.762 426.878 417.842 426.927 421.938 429.776 425.773 432.984 429.3 436.513 435.532 442.753 444.232 454.768 448.422 462.746 448.636 463.162 448.858 463.561 449.1 463.96Z" fill="#D86ECC"/></g></svg>