<svg width="111" height="110" xmlns="http://www.w3.org/2000/svg" xmlns:xlink="http://www.w3.org/1999/xlink" xml:space="preserve" overflow="hidden"><g transform="translate(-1080 -189)"><path d="M97.0542 45.9783C96.476 45.2536 95.7468 44.6437 94.9051 44.1899L70.3656 31.0183C69.9772 32.4277 69.5718 33.697 69.1722 34.9072 68.6974 36.3483 68.2333 37.7036 67.8122 39.1304 67.2555 41.0302 66.7698 43.0717 66.4187 45.6915 66.2404 47.0244 65.0197 47.9591 63.6915 47.7808 62.358 47.6025 61.423 46.3826 61.6015 45.0545 62.1741 40.723 63.1406 37.64 64.0857 34.7989 64.5771 33.3306 65.0525 31.926 65.4951 30.386 65.9106 28.9401 66.2943 27.3683 66.6235 25.5114 66.6505 25.3696 66.672 25.2295 66.6942 25.0847 67.1099 22.6273 67.4236 19.6511 67.558 15.8437 67.5636 15.6716 67.5686 15.498 67.5686 15.3261 67.5636 13.2095 67.1155 11.211 66.3049 9.37965 65.4895 7.55477 64.3126 5.90176 62.8603 4.50828 59.9438 1.72305 55.9483 0 51.6278 0 47.2205 0 43.2515 1.78191 40.3627 4.66598 37.4795 7.55477 35.6974 11.5231 35.6974 15.9311 35.6974 18.3773 36.1346 20.9092 36.8528 23.5606 37.5712 26.2122 38.5696 28.9766 39.6501 31.8669 40.2282 33.4275 40.8326 35.0249 41.4264 36.6667 41.9072 38.0061 42.3827 39.3787 42.8308 40.7769 43.8621 44.0064 44.7427 47.4016 45.2229 50.9942 45.4012 52.3224 44.4666 53.5423 43.1329 53.7206 41.8047 53.8989 40.584 52.9656 40.4057 51.6313 40.0013 48.6183 39.2719 45.6912 38.3754 42.8184L15.4954 53.3049C14.3067 53.8512 13.3184 54.7031 12.6169 55.7414L33.964 76.7796 97.0542 45.9783Z" fill="#C04F15" transform="matrix(1.00909 0 0 1 1080 189)"/><path d="M31.3762 80.3011 11.3962 60.6068 11.3962 72.9947 31.3762 96.9712Z" fill="#C04F15" transform="matrix(1.00909 0 0 1 1080 189)"/><path d="M98.5935 50.0328 35.6974 80.7389 35.6965 80.7389 35.6965 99.304 35.6974 99.304 98.6036 65.1963 98.6036 50.3783C98.6038 50.2653 98.5982 50.1458 98.5935 50.0328Z" fill="#C04F15" transform="matrix(1.00909 0 0 1 1080 189)"/><path d="M33.4011 104.078 13.273 80.2802 13.3057 85.4429C13.3128 86.4413 13.6703 87.4064 14.3161 88.1693L31.9505 108.991C32.8223 110.021 34.2953 110.298 35.4817 109.655L92.2331 78.2547C93.6207 77.5032 94.4808 76.0459 94.4696 74.4679L94.4442 71.0041 33.4011 104.078Z" fill="#C04F15" transform="matrix(1.00909 0 0 1 1080 189)"/></g></svg>