<svg width="96" height="96" xmlns="http://www.w3.org/2000/svg" xmlns:xlink="http://www.w3.org/1999/xlink" xml:space="preserve" overflow="hidden"><g transform="translate(-586 -408)"><path d="M609 490 609 422 634 422 634 443 659 443 659 490 609 490ZM640 424.5 652.5 437 640 437 640 424.5ZM640 416 603 416 603 496 665 496 665 438 640 416Z" fill="#888888"/><path d="M615 453 653 453 653 457 615 457Z" fill="#888888"/><path d="M615 445 628 445 628 449 615 449Z" fill="#888888"/><path d="M615 461 653 461 653 465 615 465Z" fill="#888888"/><path d="M615 469 653 469 653 473 615 473Z" fill="#888888"/><path d="M615 477 653 477 653 481 615 481Z" fill="#888888"/></g></svg>