<svg width="96" height="96" xmlns="http://www.w3.org/2000/svg" xmlns:xlink="http://www.w3.org/1999/xlink" xml:space="preserve" overflow="hidden"><g transform="translate(-201 -584)"><path d="M224 604 235 604 235 610 263 610 263 604 274 604 274 666 224 666 224 604ZM249.1 596C250.7 596 252 597.4 252 599 252 600.7 250.7 602 249 602 247.3 602 246 600.7 246 599 246 597.3 247.3 596 249.1 596ZM218 602 218 668C218 670.2 219.8 672 222 672L276 672C278.2 672 280 670.2 280 668L280 602C280 599.8 278.2 598 276 598L259 598 259 596C259 593.8 257.2 592 255 592L243 592C240.8 592 239 593.8 239 596L239 598 222 598C219.8 598 218 599.8 218 602Z" fill="#888888"/><path d="M230 618 247 618 247 622 230 622Z" fill="#888888"/><path d="M230 630 247 630 247 634 230 634Z" fill="#888888"/><path d="M230 642 247 642 247 646 230 646Z" fill="#888888"/><path d="M230 654 247 654 247 658 230 658Z" fill="#888888"/><path d="M253.9 619.8 256 617.7 258.6 620.3 265.2 613.7 267.3 615.8 258.6 624.5Z" fill="#888888"/><path d="M253.9 631.8 256 629.7 258.6 632.3 265.2 625.7 267.3 627.8 258.6 636.5Z" fill="#888888"/><path d="M253.9 643.8 256 641.7 258.6 644.3 265.2 637.7 267.3 639.8 258.6 648.5Z" fill="#888888"/><path d="M253.9 655.8 256 653.7 258.6 656.3 265.2 649.7 267.3 651.8 258.6 660.5Z" fill="#888888"/></g></svg>