<svg width="96" height="96" xmlns="http://www.w3.org/2000/svg" xmlns:xlink="http://www.w3.org/1999/xlink" xml:space="preserve" overflow="hidden"><g transform="translate(-217 -400)"><path d="M240 420 251 420 251 426 279 426 279 420 290 420 290 482 240 482 240 420ZM265.1 412C266.7 412 268 413.4 268 415 268 416.7 266.7 418 265 418 263.3 418 262 416.7 262 415 262 413.3 263.3 412 265.1 412ZM234 418 234 484C234 486.2 235.8 488 238 488L292 488C294.2 488 296 486.2 296 484L296 418C296 415.8 294.2 414 292 414L275 414 275 412C275 409.8 273.2 408 271 408L259 408C256.8 408 255 409.8 255 412L255 414 238 414C235.8 414 234 415.8 234 418Z" fill="#888888"/><path d="M246 434 263 434 263 438 246 438Z" fill="#888888"/><path d="M246 446 263 446 263 450 246 450Z" fill="#888888"/><path d="M246 458 263 458 263 462 246 462Z" fill="#888888"/><path d="M246 470 263 470 263 474 246 474Z" fill="#888888"/><path d="M269.9 435.8 272 433.7 274.6 436.3 281.2 429.7 283.3 431.8 274.6 440.5Z" fill="#888888"/><path d="M269.9 447.8 272 445.7 274.6 448.3 281.2 441.7 283.3 443.8 274.6 452.5Z" fill="#888888"/><path d="M269.9 459.8 272 457.7 274.6 460.3 281.2 453.7 283.3 455.8 274.6 464.5Z" fill="#888888"/><path d="M269.9 471.8 272 469.7 274.6 472.3 281.2 465.7 283.3 467.8 274.6 476.5Z" fill="#888888"/></g></svg>