<?xml version="1.0" encoding="UTF-8"?>
<svg id="_レイヤー_2" data-name="レイヤー 2" xmlns="http://www.w3.org/2000/svg" viewBox="0 0 195.55 122.6">
  <defs>
    <style>
      .cls-1 {
        fill: #888888;
      }

      .cls-2 {
        fill: rgba(75, 75, 75, 0);
      }

      .cls-3 {
        fill: #888888;
      }
    </style>
  </defs>
  <g id="_レイヤー_1-2" data-name="レイヤー 1">
    <path class="cls-1" d="M162.4,44.51c-15.06-1.46-30.2-.16-45.14,1.93-7.58,1.06-15.12,2.38-22.64,3.78-7.02,1.31-14.07,2.54-21.06,4.03-2.21.47-4.84.99-6.5,2.65s-2.18,4.4-.89,6.44c.91,1.43,2.24,2.27,3.84,2.74,2.86.84,6.06.9,9.02,1.11,3.68.26,7.37.44,11.06.56,14.46.49,28.93.14,43.38.7,3.58.14,7.15.34,10.72.62,1.62.13,3.25.28,4.87.45.88.09,1.76.19,2.64.3.44.05.88.11,1.32.16.59.08.58.08-.02,0,.29.04.58.08.87.12,6.96.99,13.86,2.44,20.56,4.58,1.54.49,3.07,1.02,4.59,1.58.83.31,1.66.63,2.48.96.41.17.82.33,1.23.51-.81-.34.18.08.44.2,1.16.51,2.26,1.08,3.33,1.76.83.52-.91-.79-.24-.17.38.35.52.82-.23-.39.25.4.02.35-.27-.73-.34-1.26,0-2.75.91-3.69l.65-.51c-.15.1-.32.18-.48.25l.58-.26c-.25.08-.5.16-.75.22l.55-.03c-.24.03-.47.05-.71.08-.36.04-.71.08-1.07.12-1.41.15-2.83.3-4.25.44-2.8.28-5.61.53-8.42.76-22.38,1.83-44.85,2.57-67.03,6.28-25.71,4.3-50.34,13.04-73.17,25.64-3.26,1.8-6.49,3.68-9.67,5.61-2.24,1.36-3.27,4.55-1.79,6.84s4.45,3.24,6.84,1.79c6.48-3.93,13.11-7.6,19.9-10.95,3.15-1.55,6.34-3.03,9.56-4.44.65-.28,1.31-.57,1.96-.85,1.3-.56-.94.38.37-.15.39-.16.78-.32,1.17-.48,1.54-.63,3.08-1.24,4.63-1.84,11.43-4.38,23.24-7.74,35.24-10.14,2.77-.55,5.54-1.05,8.33-1.51,1.4-.23,2.81-.45,4.21-.66.58-.09,1.17-.17,1.75-.25.35-.05.7-.1,1.05-.15.23-.03.47-.06.7-.1-.75.1-.84.11-.28.04,5.46-.71,10.94-1.3,16.43-1.78,10.94-.97,21.91-1.58,32.86-2.37,5.48-.4,10.96-.84,16.43-1.4,3.36-.34,7.14-.31,10.11-2.08,3.93-2.33,4.12-7.31.96-10.38-2.28-2.22-5.49-3.35-8.36-4.54-3.26-1.35-6.6-2.52-9.99-3.52-7.04-2.09-14.26-3.4-21.54-4.35-14.15-1.84-28.44-1.88-42.68-1.97-7.2-.04-14.4-.09-21.6-.35-3.69-.13-7.38-.33-11.06-.6-.89-.07-1.77-.13-2.66-.22-.42-.04-2.34-.43-.74-.06-.49-.11-1.01-.15-1.5-.26-.18-.04-.36-.1-.55-.14-.97-.21,1.07.55.58.26,1.96,1.15,1.56,1.74,1.56,3.98s.22,2.81-1.54,3.96c.93-.6-1.33.41-.28.09.96-.29,1.93-.55,2.91-.77,3.35-.73,6.75-1.3,10.12-1.95,7.51-1.45,15.03-2.89,22.57-4.16,3.61-.61,7.23-1.18,10.85-1.69.47-.07.94-.13,1.41-.2,1.56-.22-1,.13.55-.07.94-.12,1.88-.24,2.82-.36,1.87-.23,3.75-.44,5.63-.62,7.37-.73,14.78-1.14,22.18-.99,3.46.07,6.91.27,10.35.6,2.61.25,5.11-2.48,5-5-.13-2.93-2.2-4.73-5-5h0Z"/>
    <path class="cls-3" d="M50.89,66.36c0,7.28-6.79,16.61-12.05,24.6-4.89,7.43-6.63,16.21-13.4,16.21s-9.33-7.86-13.53-15.03C7.19,84.07,0,73.79,0,66.36c0-14.05,11.39-25.45,25.45-25.45s25.45,11.39,25.45,25.45Z"/>
    <circle class="cls-2" cx="25.45" cy="66.54" r="14.95"/>
    <path class="cls-3" d="M180.79,16.52c0,4.73-4.57,10.78-8.11,15.96-3.29,4.82-4.46,10.52-9.02,10.52s-6.28-5.1-9.1-9.76c-3.18-5.23-8.02-11.9-8.02-16.73,0-9.12,7.67-16.52,17.12-16.52s17.12,7.39,17.12,16.52Z"/>
    <ellipse class="cls-2" cx="163.66" cy="16.64" rx="10.06" ry="9.7"/>
  </g>
</svg>