<svg width="96" height="96" xmlns="http://www.w3.org/2000/svg" xmlns:xlink="http://www.w3.org/1999/xlink" xml:space="preserve" overflow="hidden"><g transform="translate(-363 -584)"><path d="M409.4 673.042C412.494 673.042 414.1 671.279 415.54 669.267 416.657 667.706 417.378 666.814 419.186 666.648 421.413 666.448 423.522 667.659 425.964 669.064 430.012 671.4 435.054 674.3 442.254 670.9 443.246 670.414 443.656 669.216 443.17 668.224 442.694 667.253 441.532 666.836 440.547 667.283 435.237 669.789 431.863 667.846 427.957 665.598 425.179 663.998 422.31 662.344 418.817 662.665 415.099 663.006 413.473 665.279 412.284 666.939 410.868 668.917 410.157 669.91 405.743 668.139 404.717 667.729 403.553 668.227 403.143 669.253 402.733 670.279 403.231 671.443 404.257 671.853 405.881 672.57 407.626 672.974 409.4 673.042Z" fill="#888888"/><path d="M433.1 647.96C435.347 651.596 440.142 659.845 442.13 667.019 442.139 667.055 442.117 667.091 442.081 667.1 442.055 667.107 442.027 667.097 442.011 667.075 440.238 664.948 438.206 663.052 435.963 661.428L435.963 661.428C435.934 661.345 434.222 656.467 429.15 648.755 429.14 648.74 429.123 648.732 429.105 648.735 427.285 648.895 425.452 648.663 423.729 648.053 416.712 646.105 411.629 639.436 411.129 638.753 411.109 638.726 411.129 638.696 411.165 638.696 413.875 638.665 416.544 638.033 418.979 636.844 419.081 636.802 419.13 636.685 419.087 636.583 419.05 636.493 418.954 636.443 418.859 636.464L418.853 636.464C413.5 637.312 408.094 635.288 404.614 631.132 402.453 628.534 400.078 626.121 397.514 623.919 394.297 621.156 390.226 618.413 386.464 615.577 386.268 615.421 386.236 615.136 386.392 614.94 386.46 614.855 386.556 614.797 386.664 614.777 389.139 614.315 391.492 613.345 393.574 611.93 393.623 611.897 393.655 611.844 393.661 611.786 393.674 611.676 393.596 611.577 393.487 611.563 393.458 611.56 393.429 611.562 393.402 611.571 390.261 612.531 386.919 612.629 383.727 611.855 381.848 611.391 380.162 610.347 378.91 608.871 375.579 604.98 374.21 600.797 377.249 596.085 379.32 592.872 383.94 591.485 389.927 592.176 393.431 592.548 396.43 594.854 397.689 598.145 398.119 599.298 398.431 600.492 398.62 601.709 398.62 601.82 398.71 601.909 398.82 601.909 398.931 601.909 399.02 601.82 399.02 601.709 399.05 601.509 399.075 601.309 399.098 601.109 399.32 599.122 399.215 597.111 398.785 595.158 398.726 594.92 398.871 594.68 399.108 594.621 399.195 594.6 399.286 594.605 399.369 594.636 404.06 596.517 408.495 598.982 412.569 601.974 417.287 605.369 421.613 609.278 425.469 613.627 427.944 616.407 429.267 620.026 429.169 623.747 429.107 625.308 428.844 626.854 428.385 628.347 428.347 628.451 428.401 628.566 428.505 628.603 428.594 628.636 428.695 628.601 428.744 628.519 430.023 626.635 430.939 624.528 431.444 622.307L431.526 622.294C433.912 626.872 436.497 634.042 436.903 638.794 437.16 641.806 436.315 644.508 434.765 645.98 434.748 645.997 434.72 645.998 434.703 645.981 434.7 645.978 434.697 645.975 434.695 645.971 430.952 639.356 423.367 628.1 417.966 622.686 413.849 618.461 409.254 614.729 404.274 611.567 403.573 611.125 402.81 610.788 402.011 610.567 401.907 610.531 401.793 610.587 401.757 610.691 401.726 610.78 401.762 610.878 401.842 610.927 405.938 613.776 409.773 616.984 413.3 620.513 419.532 626.753 428.232 638.768 432.422 646.746 432.636 647.162 432.858 647.561 433.1 647.96Z" fill="#888888"/></g></svg>