<svg width="96" height="96" xmlns="http://www.w3.org/2000/svg" xmlns:xlink="http://www.w3.org/1999/xlink" xml:space="preserve" overflow="hidden"><g transform="translate(-201 -408)"><path d="M275.4 481.3 257.4 475.1 257.3 475.1 250.1 472.6 283.8 428.1 275.4 481.3ZM252.9 477.9 246.3 484.5 248.1 476.3 252.9 477.9 252.9 477.9ZM244.9 472.8C244.7 473 244.6 473.3 244.5 473.6L244.2 474.9 242.2 484 237.4 470 274.8 434 246.1 471.3 244.9 472.8ZM216 461 274.6 429.8 234.5 467.3 216 461ZM288.2 419.4C287.6 418.9 286.7 418.9 286 419.3L210.1 459.6C209.4 460 209 460.7 209 461.5 209 462.3 209.6 463 210.3 463.2L231.1 470.3 233.7 471.2 234.3 472.9 240.5 491.5 240.5 491.6 240.5 491.7C240.7 492.3 241.3 492.8 242 493 242.7 493.2 243.4 493 243.9 492.5L244 492.4 244.6 491.8 257.2 479.4 276.4 486C277 486.2 277.6 486.1 278.1 485.8 278.6 485.5 279 485 279.1 484.4L289.1 421.4C289.2 420.5 288.8 419.8 288.2 419.4Z" fill="#888888"/></g></svg>