<svg width="111" height="111" xmlns="http://www.w3.org/2000/svg" xmlns:xlink="http://www.w3.org/1999/xlink" xml:space="preserve" overflow="hidden"><g transform="translate(-907 -80)"><path d="M962.5 149.375C954.869 149.375 948.625 143.131 948.625 135.5 948.625 127.869 954.869 121.625 962.5 121.625 970.131 121.625 976.375 127.869 976.375 135.5 976.375 143.131 970.131 149.375 962.5 149.375ZM993.719 126.828C993.025 124.284 991.984 121.856 990.713 119.659L993.603 110.988 987.013 104.397 978.341 107.287C976.028 106.016 973.6 104.975 971.056 104.281L967.125 96.1875 957.875 96.1875 953.828 104.281C951.284 104.975 948.856 106.016 946.659 107.287L937.987 104.397 931.397 110.988 934.287 119.659C933.016 121.972 931.975 124.4 931.281 126.944L923.188 130.875 923.188 140.125 931.281 144.172C931.975 146.716 933.016 149.144 934.287 151.341L931.397 160.012 937.987 166.603 946.659 163.712C948.972 164.984 951.4 166.025 953.944 166.719L957.991 174.812 967.241 174.812 971.287 166.719C973.831 166.025 976.259 164.984 978.456 163.712L987.128 166.603 993.719 160.012 990.828 151.341C992.1 149.028 993.141 146.6 993.834 144.056L1001.93 140.009 1001.93 130.759 993.719 126.828Z" fill="#888888"/></g></svg>