<?xml version="1.0" encoding="UTF-8"?>
<svg id="_レイヤー_2" data-name="レイヤー 2" xmlns="http://www.w3.org/2000/svg" viewBox="0 0 201.3 70.63">
  <defs>
    <style>
      .cls-1 {
        fill: #036eb8;
      }

      .cls-2 {
        fill: #231815;
      }
    </style>
  </defs>
  <g id="_レイヤー_1-2" data-name="レイヤー 1">
    <g>
      <path class="cls-2" d="M0,54.46V4.54h9.28v49.92H0ZM8.79,36.18v-8.54h8.96c2.16,0,3.83-.64,5.03-1.92,1.2-1.28,1.79-3.06,1.79-5.36s-.6-4.11-1.79-5.38-2.87-1.9-5.03-1.9h-8.82l-.84-8.54h9.67c5.37,0,9.52,1.31,12.45,3.94,2.93,2.62,4.39,6.35,4.39,11.18,0,5.23-1.46,9.29-4.39,12.18-2.93,2.9-7.08,4.34-12.45,4.34h-8.96ZM25.35,54.46l-9.42-23.48h9.77l10.72,23.48h-11.07Z"/>
      <path class="cls-1" d="M53.19,55.16c-3.96,0-7.04-.97-9.25-2.92-2.2-1.95-3.3-4.71-3.3-8.3,0-4.17,1.44-7.37,4.32-9.6,2.88-2.23,6.97-3.34,12.27-3.34,2.04,0,3.8.11,5.29.32,1.49.21,2.99.54,4.52.98l-1.55,7.42c-1.5-.35-2.85-.56-4.04-.62-1.2-.06-2.45-.09-3.76-.09-4.92,0-7.38,1.41-7.38,4.22,0,1.27.44,2.23,1.34,2.9.89.67,2.19,1,3.9,1,2.06,0,3.78-.39,5.17-1.16,1.38-.77,2.42-1.76,3.11-2.95.69-1.2,1.04-2.43,1.04-3.69v-2.32l1.34,9.56h-2.99l1.23-1.12c-.07,2.16-.56,3.96-1.48,5.4s-2.2,2.52-3.85,3.23-3.63,1.07-5.92,1.07ZM65.81,54.81l-.81-11.04-.14-4.85v-7.28c0-1.99-.85-3.45-2.55-4.38-1.7-.93-4.22-1.44-7.58-1.53l-9.53-.25.7-8.65,8.12.11c6.75.09,11.77,1.42,15.05,3.99,3.28,2.57,4.92,6.31,4.92,11.23v13.78l5.17.77v7.73l-13.36.35Z"/>
      <path class="cls-1" d="M85.36,70.63V17.19h8.82l.7,7.88v45.56h-9.53ZM104.84,55.16c-2.6,0-4.69-.62-6.26-1.86s-2.54-3.11-2.92-5.59h-3.3l2.53-11.85c0,3.61.54,6.23,1.62,7.88,1.08,1.64,2.96,2.46,5.66,2.46,2.48,0,4.37-.87,5.64-2.6,1.28-1.73,1.92-4.31,1.92-7.73s-.66-5.87-1.97-7.68c-1.31-1.82-3.18-2.72-5.59-2.72s-4.23.83-5.45,2.5c-1.22,1.66-1.83,4.3-1.83,7.91l-2.18-11.92h2.74c.45-2.51,1.4-4.38,2.87-5.61s3.62-1.85,6.45-1.85c4.66,0,8.28,1.69,10.85,5.06,2.57,3.38,3.85,8.14,3.85,14.31s-1.28,10.98-3.85,14.31c-2.57,3.33-6.16,4.99-10.78,4.99Z"/>
      <path class="cls-2" d="M127.27,54.46v-8.79h14.48v8.79h-14.48ZM129.37,25.98v-8.79h21.16v8.79h-21.16ZM145.37,12.16c-1.8,0-3.27-.56-4.39-1.69s-1.69-2.59-1.69-4.39.56-3.27,1.69-4.39,2.59-1.69,4.39-1.69,3.27.56,4.39,1.69,1.69,2.59,1.69,4.39-.56,3.27-1.69,4.39-2.59,1.69-4.39,1.69ZM141.05,54.46V19.3h9.49v35.16h-9.49ZM149.84,54.46v-8.79h11.74v8.79h-11.74Z"/>
      <path class="cls-2" d="M181.83,55.16c-4.62,0-8.21-1.66-10.78-4.99-2.57-3.33-3.85-8.1-3.85-14.31s1.28-10.93,3.85-14.31,6.18-5.06,10.85-5.06c2.72,0,4.79.62,6.21,1.85s2.34,3.1,2.76,5.61h3.09l-2.18,11.92c0-3.61-.6-6.25-1.81-7.91-1.21-1.66-3.03-2.5-5.47-2.5s-4.28.91-5.59,2.72c-1.31,1.82-1.97,4.38-1.97,7.68s.64,6,1.92,7.73c1.28,1.73,3.16,2.6,5.64,2.6,2.72,0,4.61-.82,5.68-2.46,1.07-1.64,1.6-4.27,1.6-7.88l2.53,11.85h-3.3c-.38,2.48-1.35,4.35-2.92,5.59s-3.66,1.86-6.26,1.86ZM193.15,54.81l-1.37-7.38V1.72h9.53v52.73l-8.16.35Z"/>
    </g>
  </g>
</svg>