<?xml version="1.0" encoding="UTF-8"?>
<svg id="_レイヤー_2" data-name="レイヤー 2" xmlns="http://www.w3.org/2000/svg" viewBox="0 0 216.36 58.56">
  <defs>
    <style>
      .cls-1 {
        fill: #231815;
      }

      .cls-2 {
        fill: #00a0e9;
      }
    </style>
  </defs>
  <g id="_レイヤー_1-2" data-name="レイヤー 1">
    <g>
      <path class="cls-1" d="M8.17,26.22v15.91c0,.94-.32,1.7-.97,2.29-.8.72-1.85,1.08-3.13,1.08-1.68,0-2.88-.57-3.6-1.7-.31-.47-.47-1.03-.47-1.67V8.29C0,3.45,2.42,1.03,7.27,1.03h10.69c4.24,0,7.68.69,10.31,2.08,1.5.8,2.77,1.88,3.81,3.22,1.58,2.03,2.37,4.41,2.37,7.15,0,6.58-3.6,10.49-10.81,11.72l11.72,14.24c.53.64.79,1.38.79,2.2,0,1.37-.61,2.39-1.82,3.08-.9.51-1.85.76-2.84.76-1.6,0-2.9-.69-3.9-2.08l-12.22-17.17h-7.21ZM8.17,19.63h8.47c6,0,8.99-2.01,8.99-6.04s-2.9-5.86-8.7-5.86h-7.56c-.8,0-1.2.4-1.2,1.2v10.69Z"/>
      <path class="cls-1" d="M64.83,17.29l.18-1.9c.14-1.6,1.18-2.4,3.13-2.4,1.56,0,2.64.6,3.22,1.79.19.41.29.87.29,1.38v26.16c0,.66-.15,1.25-.44,1.76-.59.96-1.56,1.44-2.93,1.44-1.89,0-2.99-.99-3.28-2.96l-.32-2.02c-1.93,3.48-5.24,5.21-9.93,5.21-5,0-8.85-2.01-11.54-6.04-1.91-2.85-2.87-6.31-2.87-10.37,0-3.85.98-7.2,2.93-10.05,1.6-2.36,3.67-4.08,6.21-5.16,1.76-.76,3.6-1.14,5.54-1.14,4.34,0,7.61,1.44,9.81,4.31ZM64.22,29.82v-2.34c0-2.17-.8-4.06-2.4-5.68-1.62-1.64-3.5-2.46-5.62-2.46-2.46,0-4.44,1.03-5.95,3.08-1.33,1.82-1.99,4.11-1.99,6.88,0,2.38.47,4.42,1.41,6.12,1.45,2.6,3.6,3.9,6.47,3.9,1.78,0,3.4-.67,4.86-2.02,2.15-1.97,3.22-4.46,3.22-7.47Z"/>
      <path class="cls-1" d="M89.18,41.78v13.56c0,.76-.23,1.42-.7,1.96-.72.84-1.76,1.26-3.11,1.26-1.5,0-2.6-.53-3.28-1.58-.31-.47-.47-1.02-.47-1.64V16.41c0-.88.21-1.58.64-2.11.57-.72,1.41-1.08,2.52-1.08,1.78,0,2.84.94,3.19,2.81l.47,2.52c.76-1.48,1.83-2.69,3.19-3.6,1.97-1.31,4.28-1.96,6.91-1.96,4.98,0,8.82,2.01,11.51,6.04,1.91,2.85,2.87,6.32,2.87,10.4s-1.04,7.43-3.11,10.34c-2.83,3.98-6.68,5.98-11.54,5.98-4,0-7.04-1.32-9.11-3.96ZM89.12,28.89v2.31c0,2.23.81,4.15,2.43,5.77,1.58,1.6,3.44,2.4,5.57,2.4,2.5,0,4.5-1.04,6.01-3.13,1.31-1.82,1.96-4.08,1.96-6.8s-.62-5.03-1.85-6.83c-1.48-2.15-3.51-3.22-6.06-3.22-2.19,0-4.08.96-5.68,2.87-1.58,1.89-2.37,4.1-2.37,6.62Z"/>
      <path class="cls-1" d="M125.21,0c.86,0,1.68.24,2.46.73,1.54.92,2.31,2.28,2.31,4.07,0,1.25-.43,2.33-1.29,3.25-.94,1.04-2.12,1.55-3.54,1.55-.8,0-1.56-.19-2.28-.59-1.66-.94-2.49-2.35-2.49-4.25,0-1.48.56-2.7,1.67-3.63.92-.76,1.97-1.14,3.16-1.14ZM129.02,16.46v25.72c0,.8-.24,1.48-.73,2.02-.74.86-1.79,1.29-3.13,1.29-1.52,0-2.64-.54-3.34-1.61-.31-.49-.47-1.05-.47-1.7v-25.72c0-1.17.51-2.06,1.52-2.67.7-.43,1.47-.64,2.31-.64,1,0,1.88.28,2.64.85.8.63,1.2,1.45,1.2,2.46Z"/>
      <path class="cls-2" d="M147.57,28.15v14.09c0,.84-.27,1.54-.82,2.11-.74.76-1.74,1.14-2.99,1.14-1.48,0-2.57-.51-3.25-1.52-.33-.49-.5-1.06-.5-1.73v-26.04c0-.78.24-1.45.73-1.99.7-.74,1.65-1.11,2.84-1.11,1.5,0,2.56.57,3.16,1.7.23.41.35.88.35,1.41v3.08c1-1.72,1.99-3.05,2.99-3.98,1.84-1.68,4.03-2.52,6.59-2.52,2.01,0,3.74.63,5.19,1.9,1.04.92,1.55,1.96,1.55,3.13,0,.84-.28,1.62-.85,2.34-.78,1-1.79,1.49-3.02,1.49-.8,0-1.47-.21-2.02-.64-.72-.57-1.56-.85-2.52-.85-2.91,0-5.39,2.67-7.44,8Z"/>
      <path class="cls-2" d="M173.29,0c.86,0,1.68.24,2.46.73,1.54.92,2.31,2.28,2.31,4.07,0,1.25-.43,2.33-1.29,3.25-.94,1.04-2.12,1.55-3.54,1.55-.8,0-1.56-.19-2.29-.59-1.66-.94-2.49-2.35-2.49-4.25,0-1.48.56-2.7,1.67-3.63.92-.76,1.97-1.14,3.16-1.14ZM177.1,16.46v25.72c0,.8-.24,1.48-.73,2.02-.74.86-1.79,1.29-3.13,1.29-1.52,0-2.64-.54-3.34-1.61-.31-.49-.47-1.05-.47-1.7v-25.72c0-1.17.51-2.06,1.52-2.67.7-.43,1.47-.64,2.31-.64,1,0,1.88.28,2.64.85.8.63,1.2,1.45,1.2,2.46Z"/>
      <path class="cls-2" d="M200.98,12.8c4.41,0,8.05,1.46,10.9,4.39,2.99,3.07,4.48,7.09,4.48,12.07,0,3.93-.92,7.29-2.75,10.11-2.83,4.32-7.06,6.47-12.69,6.47-4.92,0-8.81-1.72-11.66-5.16-2.5-2.99-3.75-6.81-3.75-11.46,0-4.98,1.48-8.98,4.45-12.01,2.87-2.95,6.54-4.42,11.02-4.42ZM200.89,19.16c-2.48,0-4.43,1.07-5.86,3.22-1.19,1.8-1.79,4.07-1.79,6.83,0,2.09.33,3.92,1,5.48,1.33,3.09,3.57,4.63,6.74,4.63,2.52,0,4.47-1.05,5.86-3.16,1.19-1.82,1.79-4.13,1.79-6.94s-.63-5.18-1.9-6.97c-1.43-2.05-3.37-3.08-5.83-3.08Z"/>
    </g>
  </g>
</svg>