<?xml version="1.0" encoding="UTF-8"?>
<svg id="_レイヤー_2" data-name="レイヤー 2" xmlns="http://www.w3.org/2000/svg" viewBox="0 0 529.75 176.57">
  <defs>
    <style>
      .cls-1 {
        fill: #fff;
      }

      .cls-2 {
        stroke-width: 10px;
      }

      .cls-2, .cls-3 {
        fill: none;
        stroke: #122446;
        stroke-miterlimit: 10;
      }

      .cls-4 {
        fill: #89ccc1;
      }

      .cls-5 {
        fill: #1d0500;
      }

      .cls-6, .cls-7 {
        fill: #122446;
      }

      .cls-3 {
        stroke-linecap: round;
        stroke-width: 4px;
      }

      .cls-7 {
        stroke: #fff;
        stroke-width: 3px;
      }
    </style>
  </defs>
  <g id="_レイヤー_1-2" data-name="レイヤー 1">
    <g>
      <g>
        <path class="cls-5" d="M217.69,58.15c7.69,0,14.59,1.74,20.68,5.21,5.78,3.32,8.67,6.86,8.67,10.61,0,1.88-.7,3.52-2.11,4.92-1.6,1.6-3.52,2.4-5.74,2.4-1.99,0-4.04-1-6.15-2.99-4.57-4.34-9.71-6.5-15.41-6.5-4.53,0-8.2.78-11.02,2.34-3.24,1.8-4.86,4.43-4.86,7.91,0,3.09,1.46,5.66,4.39,7.73,2.19,1.56,7.4,3.57,15.64,6.04,10.7,3.16,18.01,6.31,21.91,9.43,5.82,4.69,8.73,10.7,8.73,18.05,0,8.59-3.44,15.31-10.31,20.16-6.21,4.34-14.28,6.5-24.2,6.5-9.38,0-17.64-2.27-24.79-6.8-6.76-4.3-10.14-8.48-10.14-12.54,0-1.68.55-3.18,1.64-4.51,1.52-1.91,3.46-2.87,5.8-2.87,1.68,0,3.22.53,4.63,1.58.43.35,1.27,1.15,2.52,2.4,5.9,5.78,12.68,8.67,20.33,8.67,5.12,0,9.26-.96,12.42-2.87,3.44-2.03,5.16-4.9,5.16-8.61s-1.8-6.84-5.39-9.14c-2.42-1.52-7.87-3.61-16.35-6.27-8.98-2.81-15.63-5.72-19.92-8.73-5.43-3.83-8.14-9.57-8.14-17.23,0-6.21,2.21-11.54,6.62-16,5.86-5.94,14.32-8.91,25.37-8.91Z"/>
        <path class="cls-5" d="M289.61,126.24v16.41c0,1.88-.64,3.38-1.93,4.51-1.52,1.33-3.4,1.99-5.62,1.99-3.28,0-5.55-1.19-6.8-3.57-.43-.86-.64-1.84-.64-2.93v-77.4c0-1.56.49-2.87,1.46-3.93,1.45-1.6,3.44-2.4,5.98-2.4,3.16,0,5.41,1.09,6.74,3.28.55.9.82,1.91.82,3.05v43.71l26.02-22.09c1.76-1.48,3.57-2.23,5.45-2.23,1.76,0,3.32.66,4.69,1.99,1.68,1.68,2.52,3.54,2.52,5.57s-.86,3.73-2.58,5.1l-18.46,14.77,21.5,23.61c1.45,1.64,2.17,3.5,2.17,5.57,0,2.46-.92,4.38-2.75,5.74-1.76,1.33-3.63,1.99-5.62,1.99-2.27,0-4.2-.98-5.8-2.93l-20.39-25.25-6.74,5.45Z"/>
        <path class="cls-5" d="M361.36,120.5c.23,4.73,1.91,8.55,5.04,11.48,3.4,3.2,7.7,4.8,12.89,4.8,5.9,0,10.94-2.15,15.12-6.45,1.13-1.21,2.46-1.82,3.98-1.82,1.72,0,3.3.72,4.75,2.17,1.33,1.37,1.99,2.99,1.99,4.86,0,2.15-1.08,4.24-3.22,6.27-5.59,5.35-13.32,8.03-23.2,8.03-8.55,0-15.72-2.38-21.5-7.15-7.62-6.21-11.43-14.82-11.43-25.84,0-8.16,2.15-15.16,6.45-20.98,5.94-8.09,14.28-12.13,25.02-12.13,8.87,0,16.17,3.26,21.91,9.79,4.88,5.51,7.32,11.7,7.32,18.57,0,3.05-.57,5.18-1.7,6.39-1.25,1.33-3.28,1.99-6.09,1.99h-37.32ZM361.59,108.72h27.6c1.21,0,1.82-.49,1.82-1.46,0-2.11-.88-4.24-2.64-6.39-2.7-3.32-6.47-4.98-11.31-4.98-2.89,0-5.61.74-8.14,2.23-4.1,2.38-6.54,5.92-7.32,10.61Z"/>
        <path class="cls-5" d="M437.2,85.93v-13.3c0-1.64.53-3.03,1.58-4.16,1.44-1.64,3.46-2.46,6.04-2.46,3.01,0,5.19,1.09,6.56,3.28.62.98.94,2.09.94,3.34v13.3h12.36c1.44,0,2.62.53,3.52,1.58,1.09,1.25,1.64,2.83,1.64,4.75,0,2.5-.9,4.34-2.7,5.51-.7.43-1.52.64-2.46.64h-12.36v44.24c0,1.56-.47,2.89-1.41,3.98-1.49,1.68-3.55,2.52-6.21,2.52-3.01,0-5.2-1.05-6.56-3.16-.62-.94-.94-2.05-.94-3.34v-44.24h-12.36c-1.17,0-2.19-.37-3.05-1.11-1.41-1.21-2.11-2.93-2.11-5.16,0-2.58.9-4.41,2.7-5.51.74-.47,1.56-.7,2.46-.7h12.36Z"/>
        <path class="cls-5" d="M497.11,85.93v-13.3c0-1.64.53-3.03,1.58-4.16,1.44-1.64,3.46-2.46,6.04-2.46,3.01,0,5.19,1.09,6.56,3.28.62.98.94,2.09.94,3.34v13.3h12.36c1.44,0,2.62.53,3.52,1.58,1.09,1.25,1.64,2.83,1.64,4.75,0,2.5-.9,4.34-2.7,5.51-.7.43-1.52.64-2.46.64h-12.36v44.24c0,1.56-.47,2.89-1.41,3.98-1.49,1.68-3.55,2.52-6.21,2.52-3.01,0-5.2-1.05-6.56-3.16-.62-.94-.94-2.05-.94-3.34v-44.24h-12.36c-1.17,0-2.19-.37-3.05-1.11-1.41-1.21-2.11-2.93-2.11-5.16,0-2.58.9-4.41,2.7-5.51.74-.47,1.56-.7,2.46-.7h12.36Z"/>
      </g>
      <rect class="cls-4" x="10" y="55" width="137" height="115"/>
      <path class="cls-1" d="M8,119l13.5-3,10,1.5,20-10h11.5l18-6.5,16,5.5,16.5,21v9.5l-7,1-5.5,7.5h-4l-2,6.5-7.5-1-5,5-13-4.5-13.5-7-9-1h-9.5l-11.5,3-16,5-3-2,1-30.5Z"/>
      <path class="cls-1" d="M144.5,54.5v52l-17,8-8.5,10.5h-5l-15.5-18.5-14-6-20,8-7.5-2-3.5-4.5,3.5-8,22.5-13.5,15.5-4.5h17.5l9,1s2-.5,7-4.5,16-18,16-18Z"/>
      <path class="cls-6" d="M7.46,119.96c-.72-.82-.52-2.1.43-2.64,1.02-.58,2.4-1.25,3.97-1.66,2.61-.67,5.14-1.16,7.14-1.16l14.6-.5c2,0,16.82-9.49,18.01-11.08.59-.79-.22-3.17.53-5.23,2.42-6.61,21.49-17.28,28.22-19.94,12.22-4.82,22.47-4.74,35.34-2.87,1.78.26,5.19.32,6.02,2-8.28,4-16.34.67-24.69,1.49s-18.83,5.7-26.2,10.09c-3.1,1.85-13.18,8.17-13.87,11.27-.73,3.26.78,5.97,4.29,5.75,5.65-.35,24.46-11.3,25.84-11.03,2.21.43,2.41,4.09,2.91,4.55,2.62,2.4,8.65,5.23,12.2,8.25,2.03,1.73,4.86,4.61,6.63,6.63,1.93,2.21,5.56,9.39,8.33,9.12,3.62-1.54,5.23-5.7,7.7-8.42,6.16-6.75,15.06-7.86,22.69-12.56v6.28c-5.03,2.81-13.73,4.58-17.79,8.38-2.25,2.1-4.04,6.28-6.29,8.37-1.19,1.1-5.29,2.92-5.6,3.45-.41.71.84,4.9-2.06,8.44-2.9,3.54-6.96,2.77-7.92,3.6-.24.21-.9,3.74-2.21,5.12-2.14,2.27-6.18,1.97-6.87,2.56-.44.38-2.13,5.63-4.96,5.39l-2.42.13c-.74.04-1.47-.04-2.18-.22l-4.68-1.22c1.2-5.11-8.57-9.3-13.57-13.8-3.5-5.5,3.13-3.48,7.1-.19,2.25,1.86,9.9,11.11,10.81,11.53,2.6,1.21,5.41-.25,4.78-3.32-1-4.87-10.81-14.05-14.19-18.02-.48-1.06,1.99-4.73,3.5-2.78,3.87,1.94,12.7,15.37,14.99,16.44.99.46,1.94.56,2.98.23,5.34-1.61-3.86-12.76-5.8-14.87-3.96-4.29-11.09-6.47-9.75-12.94,1-.12,1.82,0,2.76.38,3.17,1.27,11.48,9.63,13.98,12.55,2.67,3.13,3.8,9.12,9.1,6.97,4.81-2.85-4.39-14.47-6.63-17.11-3.63-4.29-12.77-12.37-17.99-14.11-6.17-2.06-15.57,5.92-22.68,6.96-4.04.59-8.95-3.09-10.46-2.72-1.89,1-14,8.5-14,8.5-6.87,3.05-13.66.93-25.5,2.5l-4.75,2.02c-.61.2-1.29.02-1.71-.47l-.08-.09Z"/>
      <path class="cls-3" d="M8.37,151.57c15.46-3.31,13.13-4.98,26.63-8.07,7.64-1.75,16.5-1.92,29,5,1.97,1.09,12.24,6.56,17,8s5.21-3.64,6-5.5"/>
      <path class="cls-2" d="M129.42,27H25.15c-11.13,0-20.15,9.02-20.15,20.15v104.27c0,11.13,9.02,20.15,20.15,20.15h104.27c11.13,0,20.15-9.02,20.15-20.15V47.15c0-11.13-9.02-20.15-20.15-20.15Z"/>
      <path class="cls-6" d="M8,39.5c0-7.18,5.82-13,13-13h113c7.18,0,13,5.82,13,13v16H8v-16Z"/>
      <path class="cls-7" d="M44,1.5h0c5.25,0,9.5,4.25,9.5,9.5v18c0,5.25-4.25,9.5-9.5,9.5h0c-5.25,0-9.5-4.25-9.5-9.5V11c0-5.25,4.25-9.5,9.5-9.5Z"/>
      <path class="cls-7" d="M114,1.5h0c5.25,0,9.5,4.25,9.5,9.5v18c0,5.25-4.25,9.5-9.5,9.5h0c-5.25,0-9.5-4.25-9.5-9.5V11c0-5.25,4.25-9.5,9.5-9.5Z"/>
    </g>
  </g>
</svg>