<svg width="155" height="177" viewBox="0 0 155 177" fill="none" xmlns="http://www.w3.org/2000/svg">
<rect x="10" y="55" width="137" height="115" fill="#8BD7CA"/>
<path d="M8 119L21.5 116L31.5 117.5L51.5 107.5H63L81 101L97 106.5L113.5 127.5V137L106.5 138L101 145.5H97L95 152L87.5 151L82.5 156L69.5 151.5L56 144.5L47 143.5H37.5L26 146.5L10 151.5L7 149.5L8 119Z" fill="white"/>
<path d="M144.5 54.5V106.5L127.5 114.5L119 125H114L98.5 106.5L84.5 100.5L64.5 108.5L57 106.5L53.5 102L57 94L79.5 80.5L95 76H112.5L121.5 77C121.5 77 123.5 76.5 128.5 72.5C133.5 68.5 144.5 54.5 144.5 54.5Z" fill="white"/>
<path d="M7.46 119.96C6.74 119.14 6.94 117.86 7.89 117.32C8.91 116.74 10.29 116.07 11.86 115.66C14.47 114.99 17 114.5 19 114.5L33.603 114C35.603 114 50.42 104.51 51.61 102.92C52.2 102.13 51.39 99.75 52.14 97.69C54.56 91.08 73.63 80.41 80.36 77.75C92.58 72.93 102.83 73.01 115.7 74.88C117.48 75.14 120.89 75.2 121.72 76.88C113.44 80.88 105.38 77.55 97.03 78.37C88.68 79.19 78.2 84.07 70.83 88.46C67.73 90.31 57.65 96.63 56.96 99.73C56.23 102.99 57.74 105.7 61.25 105.48C66.9 105.13 85.71 94.18 87.09 94.45C89.3 94.88 89.5 98.542 90 99C92.62 101.4 98.65 104.23 102.2 107.25C104.23 108.98 107.06 111.86 108.83 113.88C110.76 116.09 114.39 123.27 117.16 123C120.78 121.46 122.39 117.3 124.86 114.58C131.02 107.83 139.92 106.72 147.55 102.02V108.3C142.52 111.11 133.82 112.88 129.76 116.68C127.51 118.78 125.72 122.96 123.47 125.05C122.28 126.15 118.18 127.97 117.87 128.5C117.46 129.21 118.71 133.4 115.81 136.94C112.91 140.48 108.85 139.71 107.89 140.54C107.65 140.75 106.99 144.28 105.68 145.66C103.54 147.93 99.5 147.63 98.81 148.22C98.37 148.6 96.68 153.85 93.85 153.61L91.43 153.74C90.69 153.78 89.96 153.7 89.25 153.52L84.57 152.3C85.77 147.19 76 143 71 138.5C67.5 133 74.13 135.02 78.1 138.31C80.35 140.17 88 149.42 88.91 149.84C91.51 151.05 94.32 149.59 93.69 146.52C92.69 141.65 82.88 132.47 79.5 128.5C79.02 127.44 81.49 123.77 83 125.72C86.87 127.66 95.7 141.09 97.99 142.16C98.98 142.62 99.93 142.72 100.97 142.39C106.31 140.78 97.11 129.63 95.17 127.52C91.21 123.23 84.08 121.05 85.42 114.58C86.42 114.46 87.24 114.58 88.18 114.96C91.35 116.23 99.66 124.59 102.16 127.51C104.83 130.64 105.96 136.63 111.26 134.48C116.07 131.63 106.87 120.01 104.63 117.37C101 113.08 91.86 105 86.64 103.26C80.47 101.2 71.07 109.18 63.96 110.22C59.92 110.81 55.01 107.13 53.5 107.5C51.61 108.5 39.5 116 39.5 116C32.63 119.05 25.84 116.93 14 118.5L9.25 120.52C8.64 120.72 7.96 120.54 7.54 120.05L7.46 119.96Z" fill="#0D234A"/>
<path d="M8.36987 151.567C23.8298 148.257 21.5 146.592 35 143.5C42.64 141.75 51.5 141.584 64 148.5C65.97 149.59 76.24 155.06 81 156.5C85.76 157.94 86.21 152.86 87 151" stroke="#0D234A" stroke-width="4" stroke-miterlimit="10" stroke-linecap="round"/>
<path d="M129.42 27H25.15C14.0215 27 5 36.0215 5 47.15V151.42C5 162.549 14.0215 171.57 25.15 171.57H129.42C140.549 171.57 149.57 162.549 149.57 151.42V47.15C149.57 36.0215 140.549 27 129.42 27Z" stroke="#0D234A" stroke-width="10" stroke-miterlimit="10"/>
<path d="M8 39.5C8 32.3203 13.8203 26.5 21 26.5H134C141.18 26.5 147 32.3203 147 39.5V55.5H8V39.5Z" fill="#0D234A"/>
<rect x="34.5" y="1.5" width="19" height="37" rx="9.5" fill="#0D234A" stroke="white" stroke-width="3"/>
<rect x="104.5" y="1.5" width="19" height="37" rx="9.5" fill="#0D234A" stroke="white" stroke-width="3"/>
</svg>
