<?xml version="1.0" encoding="UTF-8"?>
<svg id="_レイヤー_2" data-name="レイヤー 2" xmlns="http://www.w3.org/2000/svg" viewBox="0 0 346.75 91.82">
  <defs>
    <style>
      .cls-1 {
        fill: #1d0500;
      }
    </style>
  </defs>
  <g id="_レイヤー_1-2" data-name="レイヤー 1">
    <g>
      <path class="cls-1" d="M34.69,0c7.69,0,14.59,1.74,20.68,5.21,5.78,3.32,8.67,6.86,8.67,10.61,0,1.88-.7,3.52-2.11,4.92-1.6,1.6-3.52,2.4-5.74,2.4-1.99,0-4.04-1-6.15-2.99-4.57-4.34-9.71-6.5-15.41-6.5-4.53,0-8.2.78-11.02,2.34-3.24,1.8-4.86,4.43-4.86,7.91,0,3.09,1.46,5.66,4.39,7.73,2.19,1.56,7.4,3.57,15.64,6.04,10.7,3.16,18.01,6.31,21.91,9.43,5.82,4.69,8.73,10.7,8.73,18.05,0,8.59-3.44,15.31-10.31,20.16-6.21,4.34-14.28,6.5-24.2,6.5-9.38,0-17.64-2.27-24.79-6.8-6.76-4.3-10.14-8.48-10.14-12.54,0-1.68.55-3.18,1.64-4.51,1.52-1.91,3.46-2.87,5.8-2.87,1.68,0,3.22.53,4.63,1.58.43.35,1.27,1.15,2.52,2.4,5.9,5.78,12.68,8.67,20.33,8.67,5.12,0,9.26-.96,12.42-2.87,3.44-2.03,5.16-4.9,5.16-8.61s-1.8-6.84-5.39-9.14c-2.42-1.52-7.87-3.61-16.35-6.27-8.98-2.81-15.63-5.72-19.92-8.73-5.43-3.83-8.14-9.57-8.14-17.23,0-6.21,2.21-11.54,6.62-16C15.18,2.97,23.63,0,34.69,0Z"/>
      <path class="cls-1" d="M106.61,68.09v16.41c0,1.88-.64,3.38-1.93,4.51-1.52,1.33-3.4,1.99-5.62,1.99-3.28,0-5.55-1.19-6.8-3.57-.43-.86-.64-1.84-.64-2.93V7.09c0-1.56.49-2.87,1.46-3.93,1.45-1.6,3.44-2.4,5.98-2.4,3.16,0,5.41,1.09,6.74,3.28.55.9.82,1.91.82,3.05v43.71l26.02-22.09c1.76-1.48,3.57-2.23,5.45-2.23,1.76,0,3.32.66,4.69,1.99,1.68,1.68,2.52,3.54,2.52,5.57s-.86,3.73-2.58,5.1l-18.46,14.77,21.5,23.61c1.45,1.64,2.17,3.5,2.17,5.57,0,2.46-.92,4.38-2.75,5.74-1.76,1.33-3.63,1.99-5.62,1.99-2.27,0-4.2-.98-5.8-2.93l-20.39-25.25-6.74,5.45Z"/>
      <path class="cls-1" d="M178.35,62.34c.23,4.73,1.91,8.55,5.04,11.48,3.4,3.2,7.7,4.8,12.89,4.8,5.9,0,10.94-2.15,15.12-6.45,1.13-1.21,2.46-1.82,3.98-1.82,1.72,0,3.3.72,4.75,2.17,1.33,1.37,1.99,2.99,1.99,4.86,0,2.15-1.08,4.24-3.22,6.27-5.59,5.35-13.32,8.03-23.2,8.03-8.55,0-15.72-2.38-21.5-7.15-7.62-6.21-11.43-14.82-11.43-25.84,0-8.16,2.15-15.16,6.45-20.98,5.94-8.09,14.28-12.13,25.02-12.13,8.87,0,16.17,3.26,21.91,9.79,4.88,5.51,7.32,11.7,7.32,18.57,0,3.05-.57,5.18-1.7,6.39-1.25,1.33-3.28,1.99-6.09,1.99h-37.32ZM178.59,50.57h27.6c1.21,0,1.82-.49,1.82-1.46,0-2.11-.88-4.24-2.64-6.39-2.7-3.32-6.47-4.98-11.31-4.98-2.89,0-5.61.74-8.14,2.23-4.1,2.38-6.54,5.92-7.32,10.61Z"/>
      <path class="cls-1" d="M254.2,27.77v-13.3c0-1.64.53-3.03,1.58-4.16,1.44-1.64,3.46-2.46,6.04-2.46,3.01,0,5.19,1.09,6.56,3.28.62.98.94,2.09.94,3.34v13.3h12.36c1.44,0,2.62.53,3.52,1.58,1.09,1.25,1.64,2.83,1.64,4.75,0,2.5-.9,4.34-2.7,5.51-.7.43-1.52.64-2.46.64h-12.36v44.24c0,1.56-.47,2.89-1.41,3.98-1.49,1.68-3.55,2.52-6.21,2.52-3.01,0-5.2-1.05-6.56-3.16-.62-.94-.94-2.05-.94-3.34v-44.24h-12.36c-1.17,0-2.19-.37-3.05-1.11-1.41-1.21-2.11-2.93-2.11-5.16,0-2.58.9-4.41,2.7-5.51.74-.47,1.56-.7,2.46-.7h12.36Z"/>
      <path class="cls-1" d="M314.11,27.77v-13.3c0-1.64.53-3.03,1.58-4.16,1.44-1.64,3.46-2.46,6.04-2.46,3.01,0,5.19,1.09,6.56,3.28.62.98.94,2.09.94,3.34v13.3h12.36c1.44,0,2.62.53,3.52,1.58,1.09,1.25,1.64,2.83,1.64,4.75,0,2.5-.9,4.34-2.7,5.51-.7.43-1.52.64-2.46.64h-12.36v44.24c0,1.56-.47,2.89-1.41,3.98-1.49,1.68-3.55,2.52-6.21,2.52-3.01,0-5.2-1.05-6.56-3.16-.62-.94-.94-2.05-.94-3.34v-44.24h-12.36c-1.17,0-2.19-.37-3.05-1.11-1.41-1.21-2.11-2.93-2.11-5.16,0-2.58.9-4.41,2.7-5.51.74-.47,1.56-.7,2.46-.7h12.36Z"/>
    </g>
  </g>
</svg>