<svg width="781" height="665" viewBox="0 0 781 665" fill="none" xmlns="http://www.w3.org/2000/svg">
<path d="M37.206 637.17C32.136 637.17 27.495 636.546 23.283 635.298C19.149 634.05 15.444 632.217 12.168 629.799C8.97 627.381 6.084 624.456 3.51 621.024L14.508 608.505C18.33 613.809 22.113 617.436 25.857 619.386C29.679 621.258 33.813 622.194 38.259 622.194C40.677 622.194 42.822 621.882 44.694 621.258C46.644 620.556 48.165 619.581 49.257 618.333C50.349 617.085 50.895 615.603 50.895 613.887C50.895 612.639 50.622 611.508 50.076 610.494C49.53 609.402 48.75 608.466 47.736 607.686C46.722 606.828 45.513 606.087 44.109 605.463C42.705 604.761 41.145 604.176 39.429 603.708C37.713 603.162 35.841 602.733 33.813 602.421C29.445 601.407 25.623 600.198 22.347 598.794C19.071 597.312 16.341 595.518 14.157 593.412C11.973 591.228 10.335 588.771 9.243 586.041C8.229 583.311 7.722 580.23 7.722 576.798C7.722 573.288 8.502 570.051 10.062 567.087C11.622 564.045 13.767 561.432 16.497 559.248C19.305 557.064 22.503 555.387 26.091 554.217C29.757 553.047 33.618 552.462 37.674 552.462C42.666 552.462 47.034 553.047 50.778 554.217C54.522 555.309 57.759 556.908 60.489 559.014C63.297 561.12 65.637 563.694 67.509 566.736L56.394 577.5C54.756 575.316 52.962 573.483 51.012 572.001C49.14 570.519 47.073 569.427 44.811 568.725C42.627 567.945 40.365 567.555 38.025 567.555C35.451 567.555 33.228 567.906 31.356 568.608C29.484 569.232 28.002 570.168 26.91 571.416C25.896 572.664 25.389 574.185 25.389 575.979C25.389 577.383 25.74 578.631 26.442 579.723C27.144 580.815 28.158 581.79 29.484 582.648C30.81 583.428 32.409 584.13 34.281 584.754C36.153 585.378 38.22 585.924 40.482 586.392C44.772 587.25 48.633 588.381 52.065 589.785C55.497 591.189 58.422 592.905 60.84 594.933C63.336 596.883 65.247 599.223 66.573 601.953C67.899 604.605 68.562 607.608 68.562 610.962C68.562 616.5 67.236 621.219 64.584 625.119C61.932 629.019 58.266 632.022 53.586 634.128C48.906 636.156 43.446 637.17 37.206 637.17ZM82.0005 636V574.107H98.0295L98.3805 585.924L95.9235 586.392C96.7815 584.364 97.9125 582.531 99.3165 580.893C100.721 579.255 102.359 577.851 104.231 576.681C106.181 575.511 108.209 574.614 110.315 573.99C112.421 573.288 114.527 572.937 116.633 572.937C119.831 572.937 122.717 573.444 125.291 574.458C127.865 575.472 130.049 577.071 131.843 579.255C133.637 581.361 135.041 584.169 136.055 587.679L133.481 587.445L134.3 585.573C135.314 583.701 136.601 582.024 138.161 580.542C139.721 578.982 141.476 577.656 143.426 576.564C145.376 575.394 147.404 574.497 149.51 573.873C151.616 573.249 153.683 572.937 155.711 572.937C160.547 572.937 164.564 573.912 167.762 575.862C170.96 577.734 173.339 580.581 174.899 584.403C176.537 588.225 177.356 592.905 177.356 598.443V636H160.742V599.613C160.742 596.805 160.352 594.504 159.572 592.71C158.792 590.916 157.661 589.59 156.179 588.732C154.697 587.796 152.786 587.328 150.446 587.328C148.652 587.328 146.975 587.64 145.415 588.264C143.933 588.81 142.607 589.629 141.437 590.721C140.345 591.735 139.487 592.944 138.863 594.348C138.239 595.752 137.927 597.312 137.927 599.028V636H121.313V599.496C121.313 596.922 120.884 594.738 120.026 592.944C119.246 591.072 118.115 589.668 116.633 588.732C115.151 587.796 113.318 587.328 111.134 587.328C109.34 587.328 107.663 587.64 106.103 588.264C104.621 588.81 103.334 589.629 102.242 590.721C101.15 591.735 100.253 592.944 99.5505 594.348C98.9265 595.752 98.6145 597.273 98.6145 598.911V636H82.0005ZM216.342 637.17C211.194 637.17 206.553 635.766 202.419 632.958C198.285 630.15 195.009 626.328 192.591 621.492C190.173 616.656 188.964 611.118 188.964 604.878C188.964 598.638 190.173 593.139 192.591 588.381C195.087 583.545 198.441 579.762 202.653 577.032C206.865 574.224 211.662 572.82 217.044 572.82C220.086 572.82 222.855 573.288 225.351 574.224C227.925 575.082 230.148 576.291 232.02 577.851C233.97 579.411 235.608 581.205 236.934 583.233C238.26 585.261 239.196 587.445 239.742 589.785L236.232 589.2V574.107H252.729V636H235.998V621.141L239.742 620.79C239.118 622.974 238.104 625.041 236.7 626.991C235.296 628.941 233.541 630.696 231.435 632.256C229.407 633.738 227.106 634.947 224.532 635.883C221.958 636.741 219.228 637.17 216.342 637.17ZM220.905 622.779C224.025 622.779 226.755 622.038 229.095 620.556C231.435 619.074 233.229 617.007 234.477 614.355C235.803 611.625 236.466 608.466 236.466 604.878C236.466 601.368 235.803 598.287 234.477 595.635C233.229 592.983 231.435 590.916 229.095 589.434C226.755 587.874 224.025 587.094 220.905 587.094C217.863 587.094 215.172 587.874 212.832 589.434C210.57 590.916 208.776 592.983 207.45 595.635C206.124 598.287 205.461 601.368 205.461 604.878C205.461 608.466 206.124 611.625 207.45 614.355C208.776 617.007 210.57 619.074 212.832 620.556C215.172 622.038 217.863 622.779 220.905 622.779ZM269.386 636V574.107H285.415L286 593.997L283.192 589.902C284.128 586.704 285.649 583.818 287.755 581.244C289.861 578.592 292.318 576.525 295.126 575.043C298.012 573.561 301.015 572.82 304.135 572.82C305.461 572.82 306.748 572.937 307.996 573.171C309.244 573.405 310.297 573.678 311.155 573.99L306.709 592.242C305.773 591.774 304.642 591.384 303.316 591.072C301.99 590.682 300.625 590.487 299.221 590.487C297.349 590.487 295.594 590.838 293.956 591.54C292.396 592.164 291.031 593.1 289.861 594.348C288.691 595.518 287.755 596.922 287.053 598.56C286.429 600.198 286.117 601.992 286.117 603.942V636H269.386ZM328.94 636V558.429H345.554V636H328.94ZM317.357 588.966V574.107H358.19V588.966H317.357ZM443.155 637.17C437.149 637.17 431.611 636.156 426.541 634.128C421.549 632.022 417.181 629.097 413.437 625.353C409.771 621.531 406.924 617.046 404.896 611.898C402.868 606.672 401.854 600.978 401.854 594.816C401.854 588.81 402.907 583.272 405.013 578.202C407.119 573.054 410.083 568.608 413.905 564.864C417.727 561.042 422.212 558.078 427.36 555.972C432.508 553.866 438.085 552.813 444.091 552.813C447.991 552.813 451.813 553.359 455.557 554.451C459.379 555.465 462.85 556.986 465.97 559.014C469.168 561.042 471.898 563.46 474.16 566.268L463.162 578.436C461.29 576.564 459.34 574.965 457.312 573.639C455.362 572.235 453.256 571.182 450.994 570.48C448.81 569.7 446.47 569.31 443.974 569.31C440.62 569.31 437.461 569.934 434.497 571.182C431.611 572.43 429.076 574.185 426.892 576.447C424.708 578.631 422.953 581.322 421.627 584.52C420.379 587.64 419.755 591.111 419.755 594.933C419.755 598.833 420.379 602.382 421.627 605.58C422.875 608.7 424.63 611.391 426.892 613.653C429.154 615.837 431.845 617.553 434.965 618.801C438.163 619.971 441.673 620.556 445.495 620.556C447.991 620.556 450.409 620.205 452.749 619.503C455.089 618.801 457.234 617.826 459.184 616.578C461.212 615.33 463.006 613.887 464.566 612.249L473.107 625.938C471.235 628.044 468.7 629.955 465.502 631.671C462.382 633.387 458.872 634.752 454.972 635.766C451.072 636.702 447.133 637.17 443.155 637.17ZM486.966 636V574.107H503.58V636H486.966ZM495.156 561.354C491.958 561.354 489.462 560.574 487.668 559.014C485.874 557.454 484.977 555.231 484.977 552.345C484.977 549.693 485.874 547.548 487.668 545.91C489.54 544.194 492.036 543.336 495.156 543.336C498.354 543.336 500.85 544.155 502.644 545.793C504.438 547.353 505.335 549.537 505.335 552.345C505.335 555.075 504.399 557.259 502.527 558.897C500.733 560.535 498.276 561.354 495.156 561.354ZM521.325 636V574.107H537.354L537.939 593.997L535.131 589.902C536.067 586.704 537.588 583.818 539.694 581.244C541.8 578.592 544.257 576.525 547.065 575.043C549.951 573.561 552.954 572.82 556.074 572.82C557.4 572.82 558.687 572.937 559.935 573.171C561.183 573.405 562.236 573.678 563.094 573.99L558.648 592.242C557.712 591.774 556.581 591.384 555.255 591.072C553.929 590.682 552.564 590.487 551.16 590.487C549.288 590.487 547.533 590.838 545.895 591.54C544.335 592.164 542.97 593.1 541.8 594.348C540.63 595.518 539.694 596.922 538.992 598.56C538.368 600.198 538.056 601.992 538.056 603.942V636H521.325ZM596.908 637.17C590.98 637.17 585.676 635.766 580.996 632.958C576.316 630.15 572.611 626.328 569.881 621.492C567.229 616.656 565.903 611.157 565.903 604.995C565.903 598.911 567.229 593.451 569.881 588.615C572.611 583.701 576.316 579.84 580.996 577.032C585.676 574.224 590.98 572.82 596.908 572.82C602.446 572.82 607.516 573.834 612.118 575.862C616.72 577.89 620.308 580.698 622.882 584.286L613.756 595.284C612.664 593.802 611.299 592.476 609.661 591.306C608.023 590.058 606.229 589.083 604.279 588.381C602.407 587.679 600.457 587.328 598.429 587.328C595.231 587.328 592.384 588.108 589.888 589.668C587.47 591.15 585.559 593.217 584.155 595.869C582.751 598.521 582.049 601.563 582.049 604.995C582.049 608.349 582.751 611.352 584.155 614.004C585.637 616.578 587.626 618.684 590.122 620.322C592.618 621.882 595.426 622.662 598.546 622.662C600.574 622.662 602.485 622.389 604.279 621.843C606.073 621.219 607.75 620.322 609.31 619.152C610.948 617.982 612.43 616.578 613.756 614.94L622.765 625.938C620.113 629.292 616.447 632.022 611.767 634.128C607.087 636.156 602.134 637.17 596.908 637.17ZM654.705 637.17C650.181 637.17 646.281 636.195 643.005 634.245C639.807 632.217 637.311 629.37 635.517 625.704C633.801 621.96 632.943 617.475 632.943 612.249V574.107H649.557V609.558C649.557 612.366 650.025 614.823 650.961 616.929C651.897 618.957 653.223 620.517 654.939 621.609C656.655 622.701 658.761 623.247 661.257 623.247C663.051 623.247 664.728 622.974 666.288 622.428C667.848 621.804 669.174 620.946 670.266 619.854C671.358 618.762 672.216 617.475 672.84 615.993C673.464 614.511 673.776 612.912 673.776 611.196V574.107H690.39V636H674.595L674.01 623.247L677.052 621.843C676.116 624.729 674.556 627.342 672.372 629.682C670.188 632.022 667.575 633.855 664.533 635.181C661.491 636.507 658.215 637.17 654.705 637.17ZM708.512 636V574.107H725.126V636H708.512ZM716.702 561.354C713.504 561.354 711.008 560.574 709.214 559.014C707.42 557.454 706.523 555.231 706.523 552.345C706.523 549.693 707.42 547.548 709.214 545.91C711.086 544.194 713.582 543.336 716.702 543.336C719.9 543.336 722.396 544.155 724.19 545.793C725.984 547.353 726.881 549.537 726.881 552.345C726.881 555.075 725.945 557.259 724.073 558.897C722.279 560.535 719.822 561.354 716.702 561.354ZM748.837 636V558.429H765.451V636H748.837ZM737.254 588.966V574.107H778.087V588.966H737.254Z" fill="#1F444E"/>
<path d="M5 50C5 22.3858 27.3858 0 55 0H469.695C496.148 0 521.523 10.4814 540.265 29.1494L734.571 222.687C753.41 241.452 764 266.947 764 293.537V454C764 481.614 741.614 504 714 504H55C27.3857 504 5 481.614 5 454V132.5V50Z" fill="url(#paint0_linear_3_67)"/>
<g filter="url(#filter0_d_3_67)">
<path d="M532 133L635.5 236L532 334V295L594.5 236L532 171V133Z" fill="#40E4E3"/>
</g>
<g filter="url(#filter1_d_3_67)">
<path d="M490 341H636.5C642.299 341 647 345.701 647 351.5V351.5C647 357.299 642.299 362 636.5 362H490V341Z" fill="#E7E7E7"/>
</g>
<g filter="url(#filter2_d_3_67)">
<path d="M497 429H636.5C641.747 429 646 433.253 646 438.5V438.5C646 443.747 641.747 448 636.5 448H497V429Z" fill="#E7E7E7"/>
</g>
<g filter="url(#filter3_d_3_67)">
<path d="M113 413L114 299C114 299 114.015 280.912 114.611 276.72C115.49 270.533 117.62 267.414 120.107 261.667C123.707 253.346 126.139 248.804 131.099 241.194C135.974 233.715 139.013 229.645 145.145 223.129C150.426 217.517 153.691 214.605 159.802 209.882C165.892 205.174 169.548 202.789 176.29 199.043C183.169 195.222 187.089 192.981 194.611 190.613C202.231 188.214 214.763 187 214.763 187H520.5L538.5 207.473L214.763 209.882C214.763 209.882 205.698 209.646 200.107 211.688C194.203 213.845 190.955 215.299 185.45 218.312C180.477 221.034 173.237 226.14 173.237 226.14C173.237 226.14 165.407 232.744 161.023 237.581C156.827 242.21 154.734 245.053 151.252 250.226C146.884 256.715 144.322 260.421 141.481 267.688C139.607 272.48 139.043 275.342 137.817 280.333C137.013 283.606 136.464 285.43 135.985 288.763C135.448 292.496 134 443.5 134 443.5L113 413Z" fill="url(#paint1_linear_3_67)"/>
<path d="M113 413L114 299C114 299 114.015 280.912 114.611 276.72C115.49 270.533 117.62 267.414 120.107 261.667C123.707 253.346 126.139 248.804 131.099 241.194C135.974 233.715 139.013 229.645 145.145 223.129C150.426 217.517 153.691 214.605 159.802 209.882C165.892 205.174 169.548 202.789 176.29 199.043C183.169 195.222 187.089 192.981 194.611 190.613C202.231 188.214 214.763 187 214.763 187H520.5L538.5 207.473L214.763 209.882C214.763 209.882 205.698 209.646 200.107 211.688C194.203 213.845 190.955 215.299 185.45 218.312C180.477 221.034 173.237 226.14 173.237 226.14C173.237 226.14 165.407 232.744 161.023 237.581C156.827 242.21 154.734 245.053 151.252 250.226C146.884 256.715 144.322 260.421 141.481 267.688C139.607 272.48 139.043 275.342 137.817 280.333C137.013 283.606 136.464 285.43 135.985 288.763C135.448 292.496 134 443.5 134 443.5L113 413Z" fill="url(#paint2_linear_3_67)"/>
</g>
<g filter="url(#filter4_d_3_67)">
<path d="M73.5 220.5V208L75 198L82.5 180L92 164.5L105 151L119 140L135.5 131.5L150 127L160 126.5L271.5 127V143L162 143.5C162 143.5 152.557 144.4 147 146C141.598 147.556 139.473 148.481 134 151.5C129.055 154.228 121.5 159.5 121.5 159.5C121.5 159.5 112.858 166.654 108.5 171.5C104.329 176.138 100.5 184.5 100.5 184.5L95.5 194.5L93 202L91 211V220.5H73.5Z" fill="#E7E7E7"/>
<path d="M73.5 220.5V208L75 198L82.5 180L92 164.5L105 151L119 140L135.5 131.5L150 127L160 126.5L271.5 127V143L162 143.5C162 143.5 152.557 144.4 147 146C141.598 147.556 139.473 148.481 134 151.5C129.055 154.228 121.5 159.5 121.5 159.5C121.5 159.5 112.858 166.654 108.5 171.5C104.329 176.138 100.5 184.5 100.5 184.5L95.5 194.5L93 202L91 211V220.5H73.5Z" fill="#E7E7E7"/>
</g>
<g filter="url(#filter5_d_3_67)">
<path d="M153.5 485L154.414 334.979C154.414 334.979 154.428 317.702 154.973 313.698C155.777 307.788 159.5 297.5 159.5 297.5L163.5 285L170.5 273L181 259.5L194 248.5L208.569 239.5L226 234L237 232L570 230L577.5 235.5L554.5 254H244L232.5 256L219.5 261L206.5 268L197 277C197 277 191.654 283.45 188.471 288.391C184.477 294.59 180.5 306.5 180.5 306.5L177.5 317L176 334.979L174 485H153.5Z" fill="#40E4E3"/>
<path d="M153.5 485L154.414 334.979C154.414 334.979 154.428 317.702 154.973 313.698C155.777 307.788 159.5 297.5 159.5 297.5L163.5 285L170.5 273L181 259.5L194 248.5L208.569 239.5L226 234L237 232L570 230L577.5 235.5L554.5 254H244L232.5 256L219.5 261L206.5 268L197 277C197 277 191.654 283.45 188.471 288.391C184.477 294.59 180.5 306.5 180.5 306.5L177.5 317L176 334.979L174 485H153.5Z" fill="#40E4E3"/>
</g>
<g filter="url(#filter6_d_3_67)">
<path d="M198.5 485L199.237 361.453C199.237 361.453 199.248 347.225 199.688 343.928C200.336 339.06 203.34 330.588 203.34 330.588C203.34 330.588 204.893 324.16 206.566 320.294C208.332 316.215 212.212 310.412 212.212 310.412C212.212 310.412 216.941 303.269 220.682 299.294C224.39 295.353 231.167 290.235 231.167 290.235C231.167 290.235 238.013 285.14 242.919 282.824C248.136 280.361 256.979 278.294 256.979 278.294L265.851 276.647L517 275.5V297.5H272C272 297.5 264.814 298.809 260.5 300.529C256.155 302.262 253.908 303.722 250 306.294C246.069 308.881 243.988 310.547 240.5 313.706C237.821 316.132 236.264 317.477 234 320.294C231.481 323.429 231.067 324.931 228.5 329C225.279 334.105 225.318 335.861 224 340.5C222.912 344.331 222.503 346.549 222 350.5C221.383 355.346 221.5 363 221.5 363V485H198.5Z" fill="#40E4E3"/>
<path d="M198.5 485L199.237 361.453C199.237 361.453 199.248 347.225 199.688 343.928C200.336 339.06 203.34 330.588 203.34 330.588C203.34 330.588 204.893 324.16 206.566 320.294C208.332 316.215 212.212 310.412 212.212 310.412C212.212 310.412 216.941 303.269 220.682 299.294C224.39 295.353 231.167 290.235 231.167 290.235C231.167 290.235 238.013 285.14 242.919 282.824C248.136 280.361 256.979 278.294 256.979 278.294L265.851 276.647L517 275.5V297.5H272C272 297.5 264.814 298.809 260.5 300.529C256.155 302.262 253.908 303.722 250 306.294C246.069 308.881 243.988 310.547 240.5 313.706C237.821 316.132 236.264 317.477 234 320.294C231.481 323.429 231.067 324.931 228.5 329C225.279 334.105 225.318 335.861 224 340.5C222.912 344.331 222.503 346.549 222 350.5C221.383 355.346 221.5 363 221.5 363V485H198.5Z" fill="#40E4E3"/>
</g>
<g filter="url(#filter7_d_3_67)">
<circle cx="292" cy="61" r="18" fill="#AEFEFF"/>
</g>
<g filter="url(#filter8_d_3_67)">
<circle cx="302" cy="133" r="18" fill="#AEFEFF"/>
</g>
<g filter="url(#filter9_d_3_67)">
<circle cx="82.5" cy="237.5" r="13.5" fill="#AEFEFF"/>
</g>
<g filter="url(#filter10_d_3_67)">
<circle cx="462" cy="353" r="18" fill="#AEFEFF"/>
</g>
<g filter="url(#filter11_d_3_67)">
<rect x="75" y="254" width="17" height="146" fill="#E7E7E7"/>
</g>
<g filter="url(#filter12_d_3_67)">
<circle cx="462" cy="438" r="18" fill="#AEFEFF"/>
</g>
<g filter="url(#filter13_d_3_67)">
<path d="M106 60.5C109.5 81.5 109.397 89.5 92 89.5C74.603 89.5 65 71 56 60C67 48 74.603 34.5 92 34.5C109.397 34.5 107.5 42.5 106 60.5Z" fill="url(#paint3_linear_3_67)"/>
</g>
<g filter="url(#filter14_d_3_67)">
<path d="M112 446.5C110.958 459 104.397 466 87 466C69.603 466 64 452.5 58.5 439.5C65 423.5 69.603 414.5 87 414.5C104.397 414.5 113.5 428.5 112 446.5Z" fill="url(#paint4_linear_3_67)"/>
</g>
<g filter="url(#filter15_d_3_67)">
<path d="M666.809 350C663.309 329 663.412 321 680.809 321C698.206 321 707.809 339.5 716.809 350.5C705.809 362.5 698.206 376 680.809 376C663.412 376 665.309 368 666.809 350Z" fill="url(#paint5_linear_3_67)"/>
</g>
<g filter="url(#filter16_d_3_67)">
<path d="M666.809 444C666.809 424.5 663.5 416 680.809 415C702 413.776 713 436 714.5 440.5C713.5 445.5 698.206 470 680.809 470C663.412 470 665.309 462 666.809 444Z" fill="url(#paint6_linear_3_67)"/>
</g>
<g filter="url(#filter17_d_3_67)">
<path d="M126 60C126 55.5817 129.582 52 134 52H259V69H134C129.582 69 126 65.4183 126 61V60Z" fill="#E7E7E7"/>
</g>
<g filter="url(#filter18_d_3_67)">
<path d="M326 59.5L412.5 59.5L415.231 59.8642C418.401 60.2869 421.517 61.0463 424.526 62.1295L426.884 62.9783C430.608 64.319 434.119 66.1926 437.305 68.5406L438.036 69.0792C440.665 71.0166 443.007 73.3169 444.991 75.9113L445.089 76.04C447.347 78.9929 449.1 82.3 450.275 85.8265L450.513 86.5404C451.498 89.4942 452 92.5873 452 95.7008V95.7008C452 97.8931 451.751 100.078 451.258 102.214L450.5 105.5L449.406 108.783C448.141 112.577 446.376 116.186 444.157 119.514L442.706 121.691C441.241 123.889 439.516 125.902 437.569 127.687V127.687C435.531 129.555 433.266 131.158 430.827 132.459L430.129 132.831C428.05 133.94 425.85 134.806 423.574 135.414V135.414C420.871 136.134 418.082 136.483 415.284 136.451L333.5 135.5" stroke="#E7E7E7" stroke-width="18"/>
</g>
<path d="M429.5 440.5L320.734 438.554L314.093 437.866C311.445 437.592 308.826 437.083 306.268 436.346L298.015 433.968C294.307 432.9 290.752 431.359 287.437 429.383L283.945 427.302C280.674 425.353 277.693 422.956 275.087 420.182L274.19 419.228C271.33 416.183 269.058 412.635 267.49 408.763L267.008 407.574C265.666 404.26 264.986 400.716 265.008 397.141V397.141C265.023 394.622 265.386 392.116 266.087 389.696L267.201 385.849L268.95 381.639C270.65 377.546 272.947 373.725 275.764 370.303L278.045 367.531C280.345 364.738 282.986 362.222 285.886 360.058V360.058C288.643 358 291.64 356.256 294.792 354.878L296.685 354.051C299.358 352.882 302.138 351.977 304.986 351.347L306.109 351.098C309.588 350.328 313.146 349.974 316.709 350.044L432 352.294" stroke="black" stroke-width="18"/>
<g filter="url(#filter19_d_3_67)">
<path d="M429.5 440.5L320.734 438.554L314.093 437.866C311.445 437.592 308.826 437.083 306.268 436.346L298.015 433.968C294.307 432.9 290.752 431.359 287.437 429.383L283.945 427.302C280.674 425.353 277.693 422.956 275.087 420.182L274.19 419.228C271.33 416.183 269.058 412.635 267.49 408.763L267.008 407.574C265.666 404.26 264.986 400.716 265.008 397.141V397.141C265.023 394.622 265.386 392.116 266.087 389.696L267.201 385.849L268.95 381.639C270.65 377.546 272.947 373.725 275.764 370.303L278.045 367.531C280.345 364.738 282.986 362.222 285.886 360.058V360.058C288.643 358 291.64 356.256 294.792 354.878L296.685 354.051C299.358 352.882 302.138 351.977 304.986 351.347L306.109 351.098C309.588 350.328 313.146 349.974 316.709 350.044L432 352.294" stroke="#E7E7E7" stroke-width="18"/>
</g>
<defs>
<filter id="filter0_d_3_67" x="532" y="133" width="113.5" height="212" filterUnits="userSpaceOnUse" color-interpolation-filters="sRGB">
<feFlood flood-opacity="0" result="BackgroundImageFix"/>
<feColorMatrix in="SourceAlpha" type="matrix" values="0 0 0 0 0 0 0 0 0 0 0 0 0 0 0 0 0 0 127 0" result="hardAlpha"/>
<feOffset dx="6" dy="7"/>
<feGaussianBlur stdDeviation="2"/>
<feComposite in2="hardAlpha" operator="out"/>
<feColorMatrix type="matrix" values="0 0 0 0 0 0 0 0 0 0 0 0 0 0 0 0 0 0 0.42 0"/>
<feBlend mode="normal" in2="BackgroundImageFix" result="effect1_dropShadow_3_67"/>
<feBlend mode="normal" in="SourceGraphic" in2="effect1_dropShadow_3_67" result="shape"/>
</filter>
<filter id="filter1_d_3_67" x="490" y="341" width="167" height="32" filterUnits="userSpaceOnUse" color-interpolation-filters="sRGB">
<feFlood flood-opacity="0" result="BackgroundImageFix"/>
<feColorMatrix in="SourceAlpha" type="matrix" values="0 0 0 0 0 0 0 0 0 0 0 0 0 0 0 0 0 0 127 0" result="hardAlpha"/>
<feOffset dx="6" dy="7"/>
<feGaussianBlur stdDeviation="2"/>
<feComposite in2="hardAlpha" operator="out"/>
<feColorMatrix type="matrix" values="0 0 0 0 0 0 0 0 0 0 0 0 0 0 0 0 0 0 0.42 0"/>
<feBlend mode="normal" in2="BackgroundImageFix" result="effect1_dropShadow_3_67"/>
<feBlend mode="normal" in="SourceGraphic" in2="effect1_dropShadow_3_67" result="shape"/>
</filter>
<filter id="filter2_d_3_67" x="497" y="429" width="159" height="30" filterUnits="userSpaceOnUse" color-interpolation-filters="sRGB">
<feFlood flood-opacity="0" result="BackgroundImageFix"/>
<feColorMatrix in="SourceAlpha" type="matrix" values="0 0 0 0 0 0 0 0 0 0 0 0 0 0 0 0 0 0 127 0" result="hardAlpha"/>
<feOffset dx="6" dy="7"/>
<feGaussianBlur stdDeviation="2"/>
<feComposite in2="hardAlpha" operator="out"/>
<feColorMatrix type="matrix" values="0 0 0 0 0 0 0 0 0 0 0 0 0 0 0 0 0 0 0.42 0"/>
<feBlend mode="normal" in2="BackgroundImageFix" result="effect1_dropShadow_3_67"/>
<feBlend mode="normal" in="SourceGraphic" in2="effect1_dropShadow_3_67" result="shape"/>
</filter>
<filter id="filter3_d_3_67" x="113" y="187" width="435.5" height="267.5" filterUnits="userSpaceOnUse" color-interpolation-filters="sRGB">
<feFlood flood-opacity="0" result="BackgroundImageFix"/>
<feColorMatrix in="SourceAlpha" type="matrix" values="0 0 0 0 0 0 0 0 0 0 0 0 0 0 0 0 0 0 127 0" result="hardAlpha"/>
<feOffset dx="6" dy="7"/>
<feGaussianBlur stdDeviation="2"/>
<feComposite in2="hardAlpha" operator="out"/>
<feColorMatrix type="matrix" values="0 0 0 0 0 0 0 0 0 0 0 0 0 0 0 0 0 0 0.42 0"/>
<feBlend mode="normal" in2="BackgroundImageFix" result="effect1_dropShadow_3_67"/>
<feBlend mode="normal" in="SourceGraphic" in2="effect1_dropShadow_3_67" result="shape"/>
</filter>
<filter id="filter4_d_3_67" x="73.5" y="126.5" width="208" height="105" filterUnits="userSpaceOnUse" color-interpolation-filters="sRGB">
<feFlood flood-opacity="0" result="BackgroundImageFix"/>
<feColorMatrix in="SourceAlpha" type="matrix" values="0 0 0 0 0 0 0 0 0 0 0 0 0 0 0 0 0 0 127 0" result="hardAlpha"/>
<feOffset dx="6" dy="7"/>
<feGaussianBlur stdDeviation="2"/>
<feComposite in2="hardAlpha" operator="out"/>
<feColorMatrix type="matrix" values="0 0 0 0 0 0 0 0 0 0 0 0 0 0 0 0 0 0 0.42 0"/>
<feBlend mode="normal" in2="BackgroundImageFix" result="effect1_dropShadow_3_67"/>
<feBlend mode="normal" in="SourceGraphic" in2="effect1_dropShadow_3_67" result="shape"/>
</filter>
<filter id="filter5_d_3_67" x="153.5" y="230" width="434" height="266" filterUnits="userSpaceOnUse" color-interpolation-filters="sRGB">
<feFlood flood-opacity="0" result="BackgroundImageFix"/>
<feColorMatrix in="SourceAlpha" type="matrix" values="0 0 0 0 0 0 0 0 0 0 0 0 0 0 0 0 0 0 127 0" result="hardAlpha"/>
<feOffset dx="6" dy="7"/>
<feGaussianBlur stdDeviation="2"/>
<feComposite in2="hardAlpha" operator="out"/>
<feColorMatrix type="matrix" values="0 0 0 0 0 0 0 0 0 0 0 0 0 0 0 0 0 0 0.42 0"/>
<feBlend mode="normal" in2="BackgroundImageFix" result="effect1_dropShadow_3_67"/>
<feBlend mode="normal" in="SourceGraphic" in2="effect1_dropShadow_3_67" result="shape"/>
</filter>
<filter id="filter6_d_3_67" x="198.5" y="275.5" width="328.5" height="220.5" filterUnits="userSpaceOnUse" color-interpolation-filters="sRGB">
<feFlood flood-opacity="0" result="BackgroundImageFix"/>
<feColorMatrix in="SourceAlpha" type="matrix" values="0 0 0 0 0 0 0 0 0 0 0 0 0 0 0 0 0 0 127 0" result="hardAlpha"/>
<feOffset dx="6" dy="7"/>
<feGaussianBlur stdDeviation="2"/>
<feComposite in2="hardAlpha" operator="out"/>
<feColorMatrix type="matrix" values="0 0 0 0 0 0 0 0 0 0 0 0 0 0 0 0 0 0 0.42 0"/>
<feBlend mode="normal" in2="BackgroundImageFix" result="effect1_dropShadow_3_67"/>
<feBlend mode="normal" in="SourceGraphic" in2="effect1_dropShadow_3_67" result="shape"/>
</filter>
<filter id="filter7_d_3_67" x="274" y="43" width="46" height="47" filterUnits="userSpaceOnUse" color-interpolation-filters="sRGB">
<feFlood flood-opacity="0" result="BackgroundImageFix"/>
<feColorMatrix in="SourceAlpha" type="matrix" values="0 0 0 0 0 0 0 0 0 0 0 0 0 0 0 0 0 0 127 0" result="hardAlpha"/>
<feOffset dx="6" dy="7"/>
<feGaussianBlur stdDeviation="2"/>
<feComposite in2="hardAlpha" operator="out"/>
<feColorMatrix type="matrix" values="0 0 0 0 0 0 0 0 0 0 0 0 0 0 0 0 0 0 0.42 0"/>
<feBlend mode="normal" in2="BackgroundImageFix" result="effect1_dropShadow_3_67"/>
<feBlend mode="normal" in="SourceGraphic" in2="effect1_dropShadow_3_67" result="shape"/>
</filter>
<filter id="filter8_d_3_67" x="284" y="115" width="46" height="47" filterUnits="userSpaceOnUse" color-interpolation-filters="sRGB">
<feFlood flood-opacity="0" result="BackgroundImageFix"/>
<feColorMatrix in="SourceAlpha" type="matrix" values="0 0 0 0 0 0 0 0 0 0 0 0 0 0 0 0 0 0 127 0" result="hardAlpha"/>
<feOffset dx="6" dy="7"/>
<feGaussianBlur stdDeviation="2"/>
<feComposite in2="hardAlpha" operator="out"/>
<feColorMatrix type="matrix" values="0 0 0 0 0 0 0 0 0 0 0 0 0 0 0 0 0 0 0.42 0"/>
<feBlend mode="normal" in2="BackgroundImageFix" result="effect1_dropShadow_3_67"/>
<feBlend mode="normal" in="SourceGraphic" in2="effect1_dropShadow_3_67" result="shape"/>
</filter>
<filter id="filter9_d_3_67" x="69" y="224" width="37" height="38" filterUnits="userSpaceOnUse" color-interpolation-filters="sRGB">
<feFlood flood-opacity="0" result="BackgroundImageFix"/>
<feColorMatrix in="SourceAlpha" type="matrix" values="0 0 0 0 0 0 0 0 0 0 0 0 0 0 0 0 0 0 127 0" result="hardAlpha"/>
<feOffset dx="6" dy="7"/>
<feGaussianBlur stdDeviation="2"/>
<feComposite in2="hardAlpha" operator="out"/>
<feColorMatrix type="matrix" values="0 0 0 0 0 0 0 0 0 0 0 0 0 0 0 0 0 0 0.42 0"/>
<feBlend mode="normal" in2="BackgroundImageFix" result="effect1_dropShadow_3_67"/>
<feBlend mode="normal" in="SourceGraphic" in2="effect1_dropShadow_3_67" result="shape"/>
</filter>
<filter id="filter10_d_3_67" x="444" y="335" width="46" height="47" filterUnits="userSpaceOnUse" color-interpolation-filters="sRGB">
<feFlood flood-opacity="0" result="BackgroundImageFix"/>
<feColorMatrix in="SourceAlpha" type="matrix" values="0 0 0 0 0 0 0 0 0 0 0 0 0 0 0 0 0 0 127 0" result="hardAlpha"/>
<feOffset dx="6" dy="7"/>
<feGaussianBlur stdDeviation="2"/>
<feComposite in2="hardAlpha" operator="out"/>
<feColorMatrix type="matrix" values="0 0 0 0 0 0 0 0 0 0 0 0 0 0 0 0 0 0 0.42 0"/>
<feBlend mode="normal" in2="BackgroundImageFix" result="effect1_dropShadow_3_67"/>
<feBlend mode="normal" in="SourceGraphic" in2="effect1_dropShadow_3_67" result="shape"/>
</filter>
<filter id="filter11_d_3_67" x="75" y="254" width="27" height="157" filterUnits="userSpaceOnUse" color-interpolation-filters="sRGB">
<feFlood flood-opacity="0" result="BackgroundImageFix"/>
<feColorMatrix in="SourceAlpha" type="matrix" values="0 0 0 0 0 0 0 0 0 0 0 0 0 0 0 0 0 0 127 0" result="hardAlpha"/>
<feOffset dx="6" dy="7"/>
<feGaussianBlur stdDeviation="2"/>
<feComposite in2="hardAlpha" operator="out"/>
<feColorMatrix type="matrix" values="0 0 0 0 0 0 0 0 0 0 0 0 0 0 0 0 0 0 0.42 0"/>
<feBlend mode="normal" in2="BackgroundImageFix" result="effect1_dropShadow_3_67"/>
<feBlend mode="normal" in="SourceGraphic" in2="effect1_dropShadow_3_67" result="shape"/>
</filter>
<filter id="filter12_d_3_67" x="444" y="420" width="46" height="47" filterUnits="userSpaceOnUse" color-interpolation-filters="sRGB">
<feFlood flood-opacity="0" result="BackgroundImageFix"/>
<feColorMatrix in="SourceAlpha" type="matrix" values="0 0 0 0 0 0 0 0 0 0 0 0 0 0 0 0 0 0 127 0" result="hardAlpha"/>
<feOffset dx="6" dy="7"/>
<feGaussianBlur stdDeviation="2"/>
<feComposite in2="hardAlpha" operator="out"/>
<feColorMatrix type="matrix" values="0 0 0 0 0 0 0 0 0 0 0 0 0 0 0 0 0 0 0.42 0"/>
<feBlend mode="normal" in2="BackgroundImageFix" result="effect1_dropShadow_3_67"/>
<feBlend mode="normal" in="SourceGraphic" in2="effect1_dropShadow_3_67" result="shape"/>
</filter>
<filter id="filter13_d_3_67" x="56" y="34.5" width="61.8086" height="66" filterUnits="userSpaceOnUse" color-interpolation-filters="sRGB">
<feFlood flood-opacity="0" result="BackgroundImageFix"/>
<feColorMatrix in="SourceAlpha" type="matrix" values="0 0 0 0 0 0 0 0 0 0 0 0 0 0 0 0 0 0 127 0" result="hardAlpha"/>
<feOffset dx="6" dy="7"/>
<feGaussianBlur stdDeviation="2"/>
<feComposite in2="hardAlpha" operator="out"/>
<feColorMatrix type="matrix" values="0 0 0 0 0 0 0 0 0 0 0 0 0 0 0 0 0 0 0.42 0"/>
<feBlend mode="normal" in2="BackgroundImageFix" result="effect1_dropShadow_3_67"/>
<feBlend mode="normal" in="SourceGraphic" in2="effect1_dropShadow_3_67" result="shape"/>
</filter>
<filter id="filter14_d_3_67" x="58.5" y="414.5" width="63.66" height="62.5" filterUnits="userSpaceOnUse" color-interpolation-filters="sRGB">
<feFlood flood-opacity="0" result="BackgroundImageFix"/>
<feColorMatrix in="SourceAlpha" type="matrix" values="0 0 0 0 0 0 0 0 0 0 0 0 0 0 0 0 0 0 127 0" result="hardAlpha"/>
<feOffset dx="6" dy="7"/>
<feGaussianBlur stdDeviation="2"/>
<feComposite in2="hardAlpha" operator="out"/>
<feColorMatrix type="matrix" values="0 0 0 0 0 0 0 0 0 0 0 0 0 0 0 0 0 0 0.42 0"/>
<feBlend mode="normal" in2="BackgroundImageFix" result="effect1_dropShadow_3_67"/>
<feBlend mode="normal" in="SourceGraphic" in2="effect1_dropShadow_3_67" result="shape"/>
</filter>
<filter id="filter15_d_3_67" x="665" y="321" width="61.8086" height="66" filterUnits="userSpaceOnUse" color-interpolation-filters="sRGB">
<feFlood flood-opacity="0" result="BackgroundImageFix"/>
<feColorMatrix in="SourceAlpha" type="matrix" values="0 0 0 0 0 0 0 0 0 0 0 0 0 0 0 0 0 0 127 0" result="hardAlpha"/>
<feOffset dx="6" dy="7"/>
<feGaussianBlur stdDeviation="2"/>
<feComposite in2="hardAlpha" operator="out"/>
<feColorMatrix type="matrix" values="0 0 0 0 0 0 0 0 0 0 0 0 0 0 0 0 0 0 0.42 0"/>
<feBlend mode="normal" in2="BackgroundImageFix" result="effect1_dropShadow_3_67"/>
<feBlend mode="normal" in="SourceGraphic" in2="effect1_dropShadow_3_67" result="shape"/>
</filter>
<filter id="filter16_d_3_67" x="665.883" y="414.951" width="58.6171" height="66.0487" filterUnits="userSpaceOnUse" color-interpolation-filters="sRGB">
<feFlood flood-opacity="0" result="BackgroundImageFix"/>
<feColorMatrix in="SourceAlpha" type="matrix" values="0 0 0 0 0 0 0 0 0 0 0 0 0 0 0 0 0 0 127 0" result="hardAlpha"/>
<feOffset dx="6" dy="7"/>
<feGaussianBlur stdDeviation="2"/>
<feComposite in2="hardAlpha" operator="out"/>
<feColorMatrix type="matrix" values="0 0 0 0 0 0 0 0 0 0 0 0 0 0 0 0 0 0 0.42 0"/>
<feBlend mode="normal" in2="BackgroundImageFix" result="effect1_dropShadow_3_67"/>
<feBlend mode="normal" in="SourceGraphic" in2="effect1_dropShadow_3_67" result="shape"/>
</filter>
<filter id="filter17_d_3_67" x="126" y="52" width="143" height="28" filterUnits="userSpaceOnUse" color-interpolation-filters="sRGB">
<feFlood flood-opacity="0" result="BackgroundImageFix"/>
<feColorMatrix in="SourceAlpha" type="matrix" values="0 0 0 0 0 0 0 0 0 0 0 0 0 0 0 0 0 0 127 0" result="hardAlpha"/>
<feOffset dx="6" dy="7"/>
<feGaussianBlur stdDeviation="2"/>
<feComposite in2="hardAlpha" operator="out"/>
<feColorMatrix type="matrix" values="0 0 0 0 0 0 0 0 0 0 0 0 0 0 0 0 0 0 0.42 0"/>
<feBlend mode="normal" in2="BackgroundImageFix" result="effect1_dropShadow_3_67"/>
<feBlend mode="normal" in="SourceGraphic" in2="effect1_dropShadow_3_67" result="shape"/>
</filter>
<filter id="filter18_d_3_67" x="326" y="50.5" width="145" height="105.953" filterUnits="userSpaceOnUse" color-interpolation-filters="sRGB">
<feFlood flood-opacity="0" result="BackgroundImageFix"/>
<feColorMatrix in="SourceAlpha" type="matrix" values="0 0 0 0 0 0 0 0 0 0 0 0 0 0 0 0 0 0 127 0" result="hardAlpha"/>
<feOffset dx="6" dy="7"/>
<feGaussianBlur stdDeviation="2"/>
<feComposite in2="hardAlpha" operator="out"/>
<feColorMatrix type="matrix" values="0 0 0 0 0 0 0 0 0 0 0 0 0 0 0 0 0 0 0.42 0"/>
<feBlend mode="normal" in2="BackgroundImageFix" result="effect1_dropShadow_3_67"/>
<feBlend mode="normal" in="SourceGraphic" in2="effect1_dropShadow_3_67" result="shape"/>
</filter>
<filter id="filter19_d_3_67" x="256.007" y="341.035" width="186.168" height="119.463" filterUnits="userSpaceOnUse" color-interpolation-filters="sRGB">
<feFlood flood-opacity="0" result="BackgroundImageFix"/>
<feColorMatrix in="SourceAlpha" type="matrix" values="0 0 0 0 0 0 0 0 0 0 0 0 0 0 0 0 0 0 127 0" result="hardAlpha"/>
<feOffset dx="6" dy="7"/>
<feGaussianBlur stdDeviation="2"/>
<feComposite in2="hardAlpha" operator="out"/>
<feColorMatrix type="matrix" values="0 0 0 0 0 0 0 0 0 0 0 0 0 0 0 0 0 0 0.42 0"/>
<feBlend mode="normal" in2="BackgroundImageFix" result="effect1_dropShadow_3_67"/>
<feBlend mode="normal" in="SourceGraphic" in2="effect1_dropShadow_3_67" result="shape"/>
</filter>
<linearGradient id="paint0_linear_3_67" x1="865.295" y1="642.014" x2="10.1516" y2="-108.025" gradientUnits="userSpaceOnUse">
<stop stop-color="#36464E"/>
<stop offset="1" stop-color="#536067"/>
</linearGradient>
<linearGradient id="paint1_linear_3_67" x1="124.5" y1="380" x2="114.5" y2="397" gradientUnits="userSpaceOnUse">
<stop stop-color="#40E4E3"/>
<stop offset="1" stop-color="white"/>
</linearGradient>
<linearGradient id="paint2_linear_3_67" x1="124" y1="334" x2="123" y2="424.5" gradientUnits="userSpaceOnUse">
<stop stop-color="#40E4E3"/>
<stop offset="1" stop-color="#BFBFBF"/>
</linearGradient>
<linearGradient id="paint3_linear_3_67" x1="81.9043" y1="34.5" x2="81.9043" y2="89.5" gradientUnits="userSpaceOnUse">
<stop stop-color="#40E4E3"/>
<stop offset="1" stop-color="#237E7D"/>
</linearGradient>
<linearGradient id="paint4_linear_3_67" x1="85.33" y1="414.5" x2="85.33" y2="466" gradientUnits="userSpaceOnUse">
<stop stop-color="#40E4E3"/>
<stop offset="1" stop-color="#237E7D"/>
</linearGradient>
<linearGradient id="paint5_linear_3_67" x1="690.904" y1="321" x2="690.904" y2="376" gradientUnits="userSpaceOnUse">
<stop stop-color="#40E4E3"/>
<stop offset="1" stop-color="#237E7D"/>
</linearGradient>
<linearGradient id="paint6_linear_3_67" x1="690.191" y1="414.951" x2="690.191" y2="470" gradientUnits="userSpaceOnUse">
<stop stop-color="#40E4E3"/>
<stop offset="1" stop-color="#237E7D"/>
</linearGradient>
</defs>
</svg>
