<svg width="776" height="95" viewBox="0 0 776 95" fill="none" xmlns="http://www.w3.org/2000/svg">
<path d="M34.206 94.17C29.136 94.17 24.495 93.546 20.283 92.298C16.149 91.05 12.444 89.217 9.168 86.799C5.97 84.381 3.084 81.456 0.51 78.024L11.508 65.505C15.33 70.809 19.113 74.436 22.857 76.386C26.679 78.258 30.813 79.194 35.259 79.194C37.677 79.194 39.822 78.882 41.694 78.258C43.644 77.556 45.165 76.581 46.257 75.333C47.349 74.085 47.895 72.603 47.895 70.887C47.895 69.639 47.622 68.508 47.076 67.494C46.53 66.402 45.75 65.466 44.736 64.686C43.722 63.828 42.513 63.087 41.109 62.463C39.705 61.761 38.145 61.176 36.429 60.708C34.713 60.162 32.841 59.733 30.813 59.421C26.445 58.407 22.623 57.198 19.347 55.794C16.071 54.312 13.341 52.518 11.157 50.412C8.973 48.228 7.335 45.771 6.243 43.041C5.229 40.311 4.722 37.23 4.722 33.798C4.722 30.288 5.502 27.051 7.062 24.087C8.622 21.045 10.767 18.432 13.497 16.248C16.305 14.064 19.503 12.387 23.091 11.217C26.757 10.047 30.618 9.46199 34.674 9.46199C39.666 9.46199 44.034 10.047 47.778 11.217C51.522 12.309 54.759 13.908 57.489 16.014C60.297 18.12 62.637 20.694 64.509 23.736L53.394 34.5C51.756 32.316 49.962 30.483 48.012 29.001C46.14 27.519 44.073 26.427 41.811 25.725C39.627 24.945 37.365 24.555 35.025 24.555C32.451 24.555 30.228 24.906 28.356 25.608C26.484 26.232 25.002 27.168 23.91 28.416C22.896 29.664 22.389 31.185 22.389 32.979C22.389 34.383 22.74 35.631 23.442 36.723C24.144 37.815 25.158 38.79 26.484 39.648C27.81 40.428 29.409 41.13 31.281 41.754C33.153 42.378 35.22 42.924 37.482 43.392C41.772 44.25 45.633 45.381 49.065 46.785C52.497 48.189 55.422 49.905 57.84 51.933C60.336 53.883 62.247 56.223 63.573 58.953C64.899 61.605 65.562 64.608 65.562 67.962C65.562 73.5 64.236 78.219 61.584 82.119C58.932 86.019 55.266 89.022 50.586 91.128C45.906 93.156 40.446 94.17 34.206 94.17ZM79.0005 93V31.107H95.0295L95.3805 42.924L92.9235 43.392C93.7815 41.364 94.9125 39.531 96.3165 37.893C97.7205 36.255 99.3585 34.851 101.231 33.681C103.181 32.511 105.209 31.614 107.315 30.99C109.421 30.288 111.527 29.937 113.633 29.937C116.831 29.937 119.717 30.444 122.291 31.458C124.865 32.472 127.049 34.071 128.843 36.255C130.637 38.361 132.041 41.169 133.055 44.679L130.481 44.445L131.3 42.573C132.314 40.701 133.601 39.024 135.161 37.542C136.721 35.982 138.476 34.656 140.426 33.564C142.376 32.394 144.404 31.497 146.51 30.873C148.616 30.249 150.683 29.937 152.711 29.937C157.547 29.937 161.564 30.912 164.762 32.862C167.96 34.734 170.339 37.581 171.899 41.403C173.537 45.225 174.356 49.905 174.356 55.443V93H157.742V56.613C157.742 53.805 157.352 51.504 156.572 49.71C155.792 47.916 154.661 46.59 153.179 45.732C151.697 44.796 149.786 44.328 147.446 44.328C145.652 44.328 143.975 44.64 142.415 45.264C140.933 45.81 139.607 46.629 138.437 47.721C137.345 48.735 136.487 49.944 135.863 51.348C135.239 52.752 134.927 54.312 134.927 56.028V93H118.313V56.496C118.313 53.922 117.884 51.738 117.026 49.944C116.246 48.072 115.115 46.668 113.633 45.732C112.151 44.796 110.318 44.328 108.134 44.328C106.34 44.328 104.663 44.64 103.103 45.264C101.621 45.81 100.334 46.629 99.2415 47.721C98.1495 48.735 97.2525 49.944 96.5505 51.348C95.9265 52.752 95.6145 54.273 95.6145 55.911V93H79.0005ZM213.342 94.17C208.194 94.17 203.553 92.766 199.419 89.958C195.285 87.15 192.009 83.328 189.591 78.492C187.173 73.656 185.964 68.118 185.964 61.878C185.964 55.638 187.173 50.139 189.591 45.381C192.087 40.545 195.441 36.762 199.653 34.032C203.865 31.224 208.662 29.82 214.044 29.82C217.086 29.82 219.855 30.288 222.351 31.224C224.925 32.082 227.148 33.291 229.02 34.851C230.97 36.411 232.608 38.205 233.934 40.233C235.26 42.261 236.196 44.445 236.742 46.785L233.232 46.2V31.107H249.729V93H232.998V78.141L236.742 77.79C236.118 79.974 235.104 82.041 233.7 83.991C232.296 85.941 230.541 87.696 228.435 89.256C226.407 90.738 224.106 91.947 221.532 92.883C218.958 93.741 216.228 94.17 213.342 94.17ZM217.905 79.779C221.025 79.779 223.755 79.038 226.095 77.556C228.435 76.074 230.229 74.007 231.477 71.355C232.803 68.625 233.466 65.466 233.466 61.878C233.466 58.368 232.803 55.287 231.477 52.635C230.229 49.983 228.435 47.916 226.095 46.434C223.755 44.874 221.025 44.094 217.905 44.094C214.863 44.094 212.172 44.874 209.832 46.434C207.57 47.916 205.776 49.983 204.45 52.635C203.124 55.287 202.461 58.368 202.461 61.878C202.461 65.466 203.124 68.625 204.45 71.355C205.776 74.007 207.57 76.074 209.832 77.556C212.172 79.038 214.863 79.779 217.905 79.779ZM266.386 93V31.107H282.415L283 50.997L280.192 46.902C281.128 43.704 282.649 40.818 284.755 38.244C286.861 35.592 289.318 33.525 292.126 32.043C295.012 30.561 298.015 29.82 301.135 29.82C302.461 29.82 303.748 29.937 304.996 30.171C306.244 30.405 307.297 30.678 308.155 30.99L303.709 49.242C302.773 48.774 301.642 48.384 300.316 48.072C298.99 47.682 297.625 47.487 296.221 47.487C294.349 47.487 292.594 47.838 290.956 48.54C289.396 49.164 288.031 50.1 286.861 51.348C285.691 52.518 284.755 53.922 284.053 55.56C283.429 57.198 283.117 58.992 283.117 60.942V93H266.386ZM325.94 93V15.429H342.554V93H325.94ZM314.357 45.966V31.107H355.19V45.966H314.357ZM440.155 94.17C434.149 94.17 428.611 93.156 423.541 91.128C418.549 89.022 414.181 86.097 410.437 82.353C406.771 78.531 403.924 74.046 401.896 68.898C399.868 63.672 398.854 57.978 398.854 51.816C398.854 45.81 399.907 40.272 402.013 35.202C404.119 30.054 407.083 25.608 410.905 21.864C414.727 18.042 419.212 15.078 424.36 12.972C429.508 10.866 435.085 9.813 441.091 9.813C444.991 9.813 448.813 10.359 452.557 11.451C456.379 12.465 459.85 13.986 462.97 16.014C466.168 18.042 468.898 20.46 471.16 23.268L460.162 35.436C458.29 33.564 456.34 31.965 454.312 30.639C452.362 29.235 450.256 28.182 447.994 27.48C445.81 26.7 443.47 26.31 440.974 26.31C437.62 26.31 434.461 26.934 431.497 28.182C428.611 29.43 426.076 31.185 423.892 33.447C421.708 35.631 419.953 38.322 418.627 41.52C417.379 44.64 416.755 48.111 416.755 51.933C416.755 55.833 417.379 59.382 418.627 62.58C419.875 65.7 421.63 68.391 423.892 70.653C426.154 72.837 428.845 74.553 431.965 75.801C435.163 76.971 438.673 77.556 442.495 77.556C444.991 77.556 447.409 77.205 449.749 76.503C452.089 75.801 454.234 74.826 456.184 73.578C458.212 72.33 460.006 70.887 461.566 69.249L470.107 82.938C468.235 85.044 465.7 86.955 462.502 88.671C459.382 90.387 455.872 91.752 451.972 92.766C448.072 93.702 444.133 94.17 440.155 94.17ZM483.966 93V31.107H500.58V93H483.966ZM492.156 18.354C488.958 18.354 486.462 17.574 484.668 16.014C482.874 14.454 481.977 12.231 481.977 9.345C481.977 6.693 482.874 4.548 484.668 2.91C486.54 1.19399 489.036 0.335994 492.156 0.335994C495.354 0.335994 497.85 1.15499 499.644 2.793C501.438 4.353 502.335 6.537 502.335 9.345C502.335 12.075 501.399 14.259 499.527 15.897C497.733 17.535 495.276 18.354 492.156 18.354ZM518.325 93V31.107H534.354L534.939 50.997L532.131 46.902C533.067 43.704 534.588 40.818 536.694 38.244C538.8 35.592 541.257 33.525 544.065 32.043C546.951 30.561 549.954 29.82 553.074 29.82C554.4 29.82 555.687 29.937 556.935 30.171C558.183 30.405 559.236 30.678 560.094 30.99L555.648 49.242C554.712 48.774 553.581 48.384 552.255 48.072C550.929 47.682 549.564 47.487 548.16 47.487C546.288 47.487 544.533 47.838 542.895 48.54C541.335 49.164 539.97 50.1 538.8 51.348C537.63 52.518 536.694 53.922 535.992 55.56C535.368 57.198 535.056 58.992 535.056 60.942V93H518.325ZM593.908 94.17C587.98 94.17 582.676 92.766 577.996 89.958C573.316 87.15 569.611 83.328 566.881 78.492C564.229 73.656 562.903 68.157 562.903 61.995C562.903 55.911 564.229 50.451 566.881 45.615C569.611 40.701 573.316 36.84 577.996 34.032C582.676 31.224 587.98 29.82 593.908 29.82C599.446 29.82 604.516 30.834 609.118 32.862C613.72 34.89 617.308 37.698 619.882 41.286L610.756 52.284C609.664 50.802 608.299 49.476 606.661 48.306C605.023 47.058 603.229 46.083 601.279 45.381C599.407 44.679 597.457 44.328 595.429 44.328C592.231 44.328 589.384 45.108 586.888 46.668C584.47 48.15 582.559 50.217 581.155 52.869C579.751 55.521 579.049 58.563 579.049 61.995C579.049 65.349 579.751 68.352 581.155 71.004C582.637 73.578 584.626 75.684 587.122 77.322C589.618 78.882 592.426 79.662 595.546 79.662C597.574 79.662 599.485 79.389 601.279 78.843C603.073 78.219 604.75 77.322 606.31 76.152C607.948 74.982 609.43 73.578 610.756 71.94L619.765 82.938C617.113 86.292 613.447 89.022 608.767 91.128C604.087 93.156 599.134 94.17 593.908 94.17ZM651.705 94.17C647.181 94.17 643.281 93.195 640.005 91.245C636.807 89.217 634.311 86.37 632.517 82.704C630.801 78.96 629.943 74.475 629.943 69.249V31.107H646.557V66.558C646.557 69.366 647.025 71.823 647.961 73.929C648.897 75.957 650.223 77.517 651.939 78.609C653.655 79.701 655.761 80.247 658.257 80.247C660.051 80.247 661.728 79.974 663.288 79.428C664.848 78.804 666.174 77.946 667.266 76.854C668.358 75.762 669.216 74.475 669.84 72.993C670.464 71.511 670.776 69.912 670.776 68.196V31.107H687.39V93H671.595L671.01 80.247L674.052 78.843C673.116 81.729 671.556 84.342 669.372 86.682C667.188 89.022 664.575 90.855 661.533 92.181C658.491 93.507 655.215 94.17 651.705 94.17ZM705.512 93V31.107H722.126V93H705.512ZM713.702 18.354C710.504 18.354 708.008 17.574 706.214 16.014C704.42 14.454 703.523 12.231 703.523 9.345C703.523 6.693 704.42 4.548 706.214 2.91C708.086 1.19399 710.582 0.335994 713.702 0.335994C716.9 0.335994 719.396 1.15499 721.19 2.793C722.984 4.353 723.881 6.537 723.881 9.345C723.881 12.075 722.945 14.259 721.073 15.897C719.279 17.535 716.822 18.354 713.702 18.354ZM745.837 93V15.429H762.451V93H745.837ZM734.254 45.966V31.107H775.087V45.966H734.254Z" fill="#1F444E"/>
</svg>
