<svg width="759" height="504" viewBox="0 0 759 504" fill="none" xmlns="http://www.w3.org/2000/svg">
<path d="M0 50C0 22.3858 22.3858 0 50 0H464.695C491.148 0 516.523 10.4814 535.265 29.1494L729.571 222.687C748.41 241.452 759 266.947 759 293.537V454C759 481.614 736.614 504 709 504H50C22.3857 504 0 481.614 0 454V132.5V50Z" fill="url(#paint0_linear_9_78)"/>
<g filter="url(#filter0_d_9_78)">
<path d="M527 133L630.5 236L527 334V295L589.5 236L527 171V133Z" fill="#40E4E3"/>
</g>
<g filter="url(#filter1_d_9_78)">
<path d="M485 341H631.5C637.299 341 642 345.701 642 351.5V351.5C642 357.299 637.299 362 631.5 362H485V341Z" fill="#E7E7E7"/>
</g>
<g filter="url(#filter2_d_9_78)">
<path d="M492 429H631.5C636.747 429 641 433.253 641 438.5V438.5C641 443.747 636.747 448 631.5 448H492V429Z" fill="#E7E7E7"/>
</g>
<g filter="url(#filter3_d_9_78)">
<path d="M108 413L109 299C109 299 109.015 280.912 109.611 276.72C110.49 270.533 112.62 267.414 115.107 261.667C118.707 253.346 121.139 248.804 126.099 241.194C130.974 233.715 134.013 229.645 140.145 223.129C145.426 217.517 148.691 214.605 154.802 209.882C160.892 205.174 164.548 202.789 171.29 199.043C178.169 195.222 182.089 192.981 189.611 190.613C197.231 188.214 209.763 187 209.763 187H515.5L533.5 207.473L209.763 209.882C209.763 209.882 200.698 209.646 195.107 211.688C189.203 213.845 185.955 215.299 180.45 218.312C175.477 221.034 168.237 226.14 168.237 226.14C168.237 226.14 160.407 232.744 156.023 237.581C151.827 242.21 149.734 245.053 146.252 250.226C141.884 256.715 139.322 260.421 136.481 267.688C134.607 272.48 134.043 275.342 132.817 280.333C132.013 283.606 131.464 285.43 130.985 288.763C130.448 292.496 129 443.5 129 443.5L108 413Z" fill="url(#paint1_linear_9_78)"/>
<path d="M108 413L109 299C109 299 109.015 280.912 109.611 276.72C110.49 270.533 112.62 267.414 115.107 261.667C118.707 253.346 121.139 248.804 126.099 241.194C130.974 233.715 134.013 229.645 140.145 223.129C145.426 217.517 148.691 214.605 154.802 209.882C160.892 205.174 164.548 202.789 171.29 199.043C178.169 195.222 182.089 192.981 189.611 190.613C197.231 188.214 209.763 187 209.763 187H515.5L533.5 207.473L209.763 209.882C209.763 209.882 200.698 209.646 195.107 211.688C189.203 213.845 185.955 215.299 180.45 218.312C175.477 221.034 168.237 226.14 168.237 226.14C168.237 226.14 160.407 232.744 156.023 237.581C151.827 242.21 149.734 245.053 146.252 250.226C141.884 256.715 139.322 260.421 136.481 267.688C134.607 272.48 134.043 275.342 132.817 280.333C132.013 283.606 131.464 285.43 130.985 288.763C130.448 292.496 129 443.5 129 443.5L108 413Z" fill="url(#paint2_linear_9_78)"/>
</g>
<g filter="url(#filter4_d_9_78)">
<path d="M68.5 220.5V208L70 198L77.5 180L87 164.5L100 151L114 140L130.5 131.5L145 127L155 126.5L266.5 127V143L157 143.5C157 143.5 147.557 144.4 142 146C136.598 147.556 134.473 148.481 129 151.5C124.055 154.228 116.5 159.5 116.5 159.5C116.5 159.5 107.858 166.654 103.5 171.5C99.3292 176.138 95.5 184.5 95.5 184.5L90.5 194.5L88 202L86 211V220.5H68.5Z" fill="#E7E7E7"/>
<path d="M68.5 220.5V208L70 198L77.5 180L87 164.5L100 151L114 140L130.5 131.5L145 127L155 126.5L266.5 127V143L157 143.5C157 143.5 147.557 144.4 142 146C136.598 147.556 134.473 148.481 129 151.5C124.055 154.228 116.5 159.5 116.5 159.5C116.5 159.5 107.858 166.654 103.5 171.5C99.3292 176.138 95.5 184.5 95.5 184.5L90.5 194.5L88 202L86 211V220.5H68.5Z" fill="#E7E7E7"/>
</g>
<g filter="url(#filter5_d_9_78)">
<path d="M148.5 485L149.414 334.979C149.414 334.979 149.428 317.702 149.973 313.698C150.777 307.788 154.5 297.5 154.5 297.5L158.5 285L165.5 273L176 259.5L189 248.5L203.569 239.5L221 234L232 232L565 230L572.5 235.5L549.5 254H239L227.5 256L214.5 261L201.5 268L192 277C192 277 186.654 283.45 183.471 288.391C179.477 294.59 175.5 306.5 175.5 306.5L172.5 317L171 334.979L169 485H148.5Z" fill="#40E4E3"/>
<path d="M148.5 485L149.414 334.979C149.414 334.979 149.428 317.702 149.973 313.698C150.777 307.788 154.5 297.5 154.5 297.5L158.5 285L165.5 273L176 259.5L189 248.5L203.569 239.5L221 234L232 232L565 230L572.5 235.5L549.5 254H239L227.5 256L214.5 261L201.5 268L192 277C192 277 186.654 283.45 183.471 288.391C179.477 294.59 175.5 306.5 175.5 306.5L172.5 317L171 334.979L169 485H148.5Z" fill="#40E4E3"/>
</g>
<g filter="url(#filter6_d_9_78)">
<path d="M193.5 485L194.237 361.453C194.237 361.453 194.248 347.225 194.688 343.928C195.336 339.06 198.34 330.588 198.34 330.588C198.34 330.588 199.893 324.16 201.566 320.294C203.332 316.215 207.212 310.412 207.212 310.412C207.212 310.412 211.941 303.269 215.682 299.294C219.39 295.353 226.167 290.235 226.167 290.235C226.167 290.235 233.013 285.14 237.919 282.824C243.136 280.361 251.979 278.294 251.979 278.294L260.851 276.647L512 275.5V297.5H267C267 297.5 259.814 298.809 255.5 300.529C251.155 302.262 248.908 303.722 245 306.294C241.069 308.881 238.988 310.547 235.5 313.706C232.821 316.132 231.264 317.477 229 320.294C226.481 323.429 226.067 324.931 223.5 329C220.279 334.105 220.318 335.861 219 340.5C217.912 344.331 217.503 346.549 217 350.5C216.383 355.346 216.5 363 216.5 363V485H193.5Z" fill="#40E4E3"/>
<path d="M193.5 485L194.237 361.453C194.237 361.453 194.248 347.225 194.688 343.928C195.336 339.06 198.34 330.588 198.34 330.588C198.34 330.588 199.893 324.16 201.566 320.294C203.332 316.215 207.212 310.412 207.212 310.412C207.212 310.412 211.941 303.269 215.682 299.294C219.39 295.353 226.167 290.235 226.167 290.235C226.167 290.235 233.013 285.14 237.919 282.824C243.136 280.361 251.979 278.294 251.979 278.294L260.851 276.647L512 275.5V297.5H267C267 297.5 259.814 298.809 255.5 300.529C251.155 302.262 248.908 303.722 245 306.294C241.069 308.881 238.988 310.547 235.5 313.706C232.821 316.132 231.264 317.477 229 320.294C226.481 323.429 226.067 324.931 223.5 329C220.279 334.105 220.318 335.861 219 340.5C217.912 344.331 217.503 346.549 217 350.5C216.383 355.346 216.5 363 216.5 363V485H193.5Z" fill="#40E4E3"/>
</g>
<g filter="url(#filter7_d_9_78)">
<circle cx="287" cy="61" r="18" fill="#AEFEFF"/>
</g>
<g filter="url(#filter8_d_9_78)">
<circle cx="297" cy="133" r="18" fill="#AEFEFF"/>
</g>
<g filter="url(#filter9_d_9_78)">
<circle cx="77.5" cy="237.5" r="13.5" fill="#AEFEFF"/>
</g>
<g filter="url(#filter10_d_9_78)">
<circle cx="457" cy="353" r="18" fill="#AEFEFF"/>
</g>
<g filter="url(#filter11_d_9_78)">
<rect x="70" y="254" width="17" height="146" fill="#E7E7E7"/>
</g>
<g filter="url(#filter12_d_9_78)">
<circle cx="457" cy="438" r="18" fill="#AEFEFF"/>
</g>
<g filter="url(#filter13_d_9_78)">
<path d="M101 60.5C104.5 81.5 104.397 89.5 87 89.5C69.603 89.5 60 71 51 60C62 48 69.603 34.5 87 34.5C104.397 34.5 102.5 42.5 101 60.5Z" fill="url(#paint3_linear_9_78)"/>
</g>
<g filter="url(#filter14_d_9_78)">
<path d="M107 446.5C105.958 459 99.397 466 82 466C64.603 466 59 452.5 53.5 439.5C60 423.5 64.603 414.5 82 414.5C99.397 414.5 108.5 428.5 107 446.5Z" fill="url(#paint4_linear_9_78)"/>
</g>
<g filter="url(#filter15_d_9_78)">
<path d="M661.809 350C658.309 329 658.412 321 675.809 321C693.206 321 702.809 339.5 711.809 350.5C700.809 362.5 693.206 376 675.809 376C658.412 376 660.309 368 661.809 350Z" fill="url(#paint5_linear_9_78)"/>
</g>
<g filter="url(#filter16_d_9_78)">
<path d="M661.809 444C661.809 424.5 658.5 416 675.809 415C697 413.776 708 436 709.5 440.5C708.5 445.5 693.206 470 675.809 470C658.412 470 660.309 462 661.809 444Z" fill="url(#paint6_linear_9_78)"/>
</g>
<g filter="url(#filter17_d_9_78)">
<path d="M121 60C121 55.5817 124.582 52 129 52H254V69H129C124.582 69 121 65.4183 121 61V60Z" fill="#E7E7E7"/>
</g>
<g filter="url(#filter18_d_9_78)">
<path d="M321 59.5L407.5 59.5L410.231 59.8642C413.401 60.2869 416.517 61.0463 419.526 62.1295L421.884 62.9783C425.608 64.319 429.119 66.1926 432.305 68.5406L433.036 69.0792C435.665 71.0166 438.007 73.3169 439.991 75.9113L440.089 76.04C442.347 78.9929 444.1 82.3 445.275 85.8265L445.513 86.5404C446.498 89.4942 447 92.5873 447 95.7008V95.7008C447 97.8931 446.751 100.078 446.258 102.214L445.5 105.5L444.406 108.783C443.141 112.577 441.376 116.186 439.157 119.514L437.706 121.691C436.241 123.889 434.516 125.902 432.569 127.687V127.687C430.531 129.555 428.266 131.158 425.827 132.459L425.129 132.831C423.05 133.94 420.85 134.806 418.574 135.414V135.414C415.871 136.134 413.082 136.483 410.284 136.451L328.5 135.5" stroke="#E7E7E7" stroke-width="18"/>
</g>
<path d="M424.5 440.5L315.734 438.554L309.093 437.866C306.445 437.592 303.826 437.083 301.268 436.346L293.015 433.968C289.307 432.9 285.752 431.359 282.437 429.383L278.945 427.302C275.674 425.353 272.693 422.956 270.087 420.182L269.19 419.228C266.33 416.183 264.058 412.635 262.49 408.763L262.008 407.574C260.666 404.26 259.986 400.716 260.008 397.141V397.141C260.023 394.622 260.386 392.116 261.087 389.696L262.201 385.849L263.95 381.639C265.65 377.546 267.947 373.725 270.764 370.303L273.045 367.531C275.345 364.738 277.986 362.222 280.886 360.058V360.058C283.643 358 286.64 356.256 289.792 354.878L291.685 354.051C294.358 352.882 297.138 351.977 299.986 351.347L301.109 351.098C304.588 350.328 308.146 349.974 311.709 350.044L427 352.294" stroke="black" stroke-width="18"/>
<g filter="url(#filter19_d_9_78)">
<path d="M424.5 440.5L315.734 438.554L309.093 437.866C306.445 437.592 303.826 437.083 301.268 436.346L293.015 433.968C289.307 432.9 285.752 431.359 282.437 429.383L278.945 427.302C275.674 425.353 272.693 422.956 270.087 420.182L269.19 419.228C266.33 416.183 264.058 412.635 262.49 408.763L262.008 407.574C260.666 404.26 259.986 400.716 260.008 397.141V397.141C260.023 394.622 260.386 392.116 261.087 389.696L262.201 385.849L263.95 381.639C265.65 377.546 267.947 373.725 270.764 370.303L273.045 367.531C275.345 364.738 277.986 362.222 280.886 360.058V360.058C283.643 358 286.64 356.256 289.792 354.878L291.685 354.051C294.358 352.882 297.138 351.977 299.986 351.347L301.109 351.098C304.588 350.328 308.146 349.974 311.709 350.044L427 352.294" stroke="#E7E7E7" stroke-width="18"/>
</g>
<defs>
<filter id="filter0_d_9_78" x="527" y="133" width="113.5" height="212" filterUnits="userSpaceOnUse" color-interpolation-filters="sRGB">
<feFlood flood-opacity="0" result="BackgroundImageFix"/>
<feColorMatrix in="SourceAlpha" type="matrix" values="0 0 0 0 0 0 0 0 0 0 0 0 0 0 0 0 0 0 127 0" result="hardAlpha"/>
<feOffset dx="6" dy="7"/>
<feGaussianBlur stdDeviation="2"/>
<feComposite in2="hardAlpha" operator="out"/>
<feColorMatrix type="matrix" values="0 0 0 0 0 0 0 0 0 0 0 0 0 0 0 0 0 0 0.42 0"/>
<feBlend mode="normal" in2="BackgroundImageFix" result="effect1_dropShadow_9_78"/>
<feBlend mode="normal" in="SourceGraphic" in2="effect1_dropShadow_9_78" result="shape"/>
</filter>
<filter id="filter1_d_9_78" x="485" y="341" width="167" height="32" filterUnits="userSpaceOnUse" color-interpolation-filters="sRGB">
<feFlood flood-opacity="0" result="BackgroundImageFix"/>
<feColorMatrix in="SourceAlpha" type="matrix" values="0 0 0 0 0 0 0 0 0 0 0 0 0 0 0 0 0 0 127 0" result="hardAlpha"/>
<feOffset dx="6" dy="7"/>
<feGaussianBlur stdDeviation="2"/>
<feComposite in2="hardAlpha" operator="out"/>
<feColorMatrix type="matrix" values="0 0 0 0 0 0 0 0 0 0 0 0 0 0 0 0 0 0 0.42 0"/>
<feBlend mode="normal" in2="BackgroundImageFix" result="effect1_dropShadow_9_78"/>
<feBlend mode="normal" in="SourceGraphic" in2="effect1_dropShadow_9_78" result="shape"/>
</filter>
<filter id="filter2_d_9_78" x="492" y="429" width="159" height="30" filterUnits="userSpaceOnUse" color-interpolation-filters="sRGB">
<feFlood flood-opacity="0" result="BackgroundImageFix"/>
<feColorMatrix in="SourceAlpha" type="matrix" values="0 0 0 0 0 0 0 0 0 0 0 0 0 0 0 0 0 0 127 0" result="hardAlpha"/>
<feOffset dx="6" dy="7"/>
<feGaussianBlur stdDeviation="2"/>
<feComposite in2="hardAlpha" operator="out"/>
<feColorMatrix type="matrix" values="0 0 0 0 0 0 0 0 0 0 0 0 0 0 0 0 0 0 0.42 0"/>
<feBlend mode="normal" in2="BackgroundImageFix" result="effect1_dropShadow_9_78"/>
<feBlend mode="normal" in="SourceGraphic" in2="effect1_dropShadow_9_78" result="shape"/>
</filter>
<filter id="filter3_d_9_78" x="108" y="187" width="435.5" height="267.5" filterUnits="userSpaceOnUse" color-interpolation-filters="sRGB">
<feFlood flood-opacity="0" result="BackgroundImageFix"/>
<feColorMatrix in="SourceAlpha" type="matrix" values="0 0 0 0 0 0 0 0 0 0 0 0 0 0 0 0 0 0 127 0" result="hardAlpha"/>
<feOffset dx="6" dy="7"/>
<feGaussianBlur stdDeviation="2"/>
<feComposite in2="hardAlpha" operator="out"/>
<feColorMatrix type="matrix" values="0 0 0 0 0 0 0 0 0 0 0 0 0 0 0 0 0 0 0.42 0"/>
<feBlend mode="normal" in2="BackgroundImageFix" result="effect1_dropShadow_9_78"/>
<feBlend mode="normal" in="SourceGraphic" in2="effect1_dropShadow_9_78" result="shape"/>
</filter>
<filter id="filter4_d_9_78" x="68.5" y="126.5" width="208" height="105" filterUnits="userSpaceOnUse" color-interpolation-filters="sRGB">
<feFlood flood-opacity="0" result="BackgroundImageFix"/>
<feColorMatrix in="SourceAlpha" type="matrix" values="0 0 0 0 0 0 0 0 0 0 0 0 0 0 0 0 0 0 127 0" result="hardAlpha"/>
<feOffset dx="6" dy="7"/>
<feGaussianBlur stdDeviation="2"/>
<feComposite in2="hardAlpha" operator="out"/>
<feColorMatrix type="matrix" values="0 0 0 0 0 0 0 0 0 0 0 0 0 0 0 0 0 0 0.42 0"/>
<feBlend mode="normal" in2="BackgroundImageFix" result="effect1_dropShadow_9_78"/>
<feBlend mode="normal" in="SourceGraphic" in2="effect1_dropShadow_9_78" result="shape"/>
</filter>
<filter id="filter5_d_9_78" x="148.5" y="230" width="434" height="266" filterUnits="userSpaceOnUse" color-interpolation-filters="sRGB">
<feFlood flood-opacity="0" result="BackgroundImageFix"/>
<feColorMatrix in="SourceAlpha" type="matrix" values="0 0 0 0 0 0 0 0 0 0 0 0 0 0 0 0 0 0 127 0" result="hardAlpha"/>
<feOffset dx="6" dy="7"/>
<feGaussianBlur stdDeviation="2"/>
<feComposite in2="hardAlpha" operator="out"/>
<feColorMatrix type="matrix" values="0 0 0 0 0 0 0 0 0 0 0 0 0 0 0 0 0 0 0.42 0"/>
<feBlend mode="normal" in2="BackgroundImageFix" result="effect1_dropShadow_9_78"/>
<feBlend mode="normal" in="SourceGraphic" in2="effect1_dropShadow_9_78" result="shape"/>
</filter>
<filter id="filter6_d_9_78" x="193.5" y="275.5" width="328.5" height="220.5" filterUnits="userSpaceOnUse" color-interpolation-filters="sRGB">
<feFlood flood-opacity="0" result="BackgroundImageFix"/>
<feColorMatrix in="SourceAlpha" type="matrix" values="0 0 0 0 0 0 0 0 0 0 0 0 0 0 0 0 0 0 127 0" result="hardAlpha"/>
<feOffset dx="6" dy="7"/>
<feGaussianBlur stdDeviation="2"/>
<feComposite in2="hardAlpha" operator="out"/>
<feColorMatrix type="matrix" values="0 0 0 0 0 0 0 0 0 0 0 0 0 0 0 0 0 0 0.42 0"/>
<feBlend mode="normal" in2="BackgroundImageFix" result="effect1_dropShadow_9_78"/>
<feBlend mode="normal" in="SourceGraphic" in2="effect1_dropShadow_9_78" result="shape"/>
</filter>
<filter id="filter7_d_9_78" x="269" y="43" width="46" height="47" filterUnits="userSpaceOnUse" color-interpolation-filters="sRGB">
<feFlood flood-opacity="0" result="BackgroundImageFix"/>
<feColorMatrix in="SourceAlpha" type="matrix" values="0 0 0 0 0 0 0 0 0 0 0 0 0 0 0 0 0 0 127 0" result="hardAlpha"/>
<feOffset dx="6" dy="7"/>
<feGaussianBlur stdDeviation="2"/>
<feComposite in2="hardAlpha" operator="out"/>
<feColorMatrix type="matrix" values="0 0 0 0 0 0 0 0 0 0 0 0 0 0 0 0 0 0 0.42 0"/>
<feBlend mode="normal" in2="BackgroundImageFix" result="effect1_dropShadow_9_78"/>
<feBlend mode="normal" in="SourceGraphic" in2="effect1_dropShadow_9_78" result="shape"/>
</filter>
<filter id="filter8_d_9_78" x="279" y="115" width="46" height="47" filterUnits="userSpaceOnUse" color-interpolation-filters="sRGB">
<feFlood flood-opacity="0" result="BackgroundImageFix"/>
<feColorMatrix in="SourceAlpha" type="matrix" values="0 0 0 0 0 0 0 0 0 0 0 0 0 0 0 0 0 0 127 0" result="hardAlpha"/>
<feOffset dx="6" dy="7"/>
<feGaussianBlur stdDeviation="2"/>
<feComposite in2="hardAlpha" operator="out"/>
<feColorMatrix type="matrix" values="0 0 0 0 0 0 0 0 0 0 0 0 0 0 0 0 0 0 0.42 0"/>
<feBlend mode="normal" in2="BackgroundImageFix" result="effect1_dropShadow_9_78"/>
<feBlend mode="normal" in="SourceGraphic" in2="effect1_dropShadow_9_78" result="shape"/>
</filter>
<filter id="filter9_d_9_78" x="64" y="224" width="37" height="38" filterUnits="userSpaceOnUse" color-interpolation-filters="sRGB">
<feFlood flood-opacity="0" result="BackgroundImageFix"/>
<feColorMatrix in="SourceAlpha" type="matrix" values="0 0 0 0 0 0 0 0 0 0 0 0 0 0 0 0 0 0 127 0" result="hardAlpha"/>
<feOffset dx="6" dy="7"/>
<feGaussianBlur stdDeviation="2"/>
<feComposite in2="hardAlpha" operator="out"/>
<feColorMatrix type="matrix" values="0 0 0 0 0 0 0 0 0 0 0 0 0 0 0 0 0 0 0.42 0"/>
<feBlend mode="normal" in2="BackgroundImageFix" result="effect1_dropShadow_9_78"/>
<feBlend mode="normal" in="SourceGraphic" in2="effect1_dropShadow_9_78" result="shape"/>
</filter>
<filter id="filter10_d_9_78" x="439" y="335" width="46" height="47" filterUnits="userSpaceOnUse" color-interpolation-filters="sRGB">
<feFlood flood-opacity="0" result="BackgroundImageFix"/>
<feColorMatrix in="SourceAlpha" type="matrix" values="0 0 0 0 0 0 0 0 0 0 0 0 0 0 0 0 0 0 127 0" result="hardAlpha"/>
<feOffset dx="6" dy="7"/>
<feGaussianBlur stdDeviation="2"/>
<feComposite in2="hardAlpha" operator="out"/>
<feColorMatrix type="matrix" values="0 0 0 0 0 0 0 0 0 0 0 0 0 0 0 0 0 0 0.42 0"/>
<feBlend mode="normal" in2="BackgroundImageFix" result="effect1_dropShadow_9_78"/>
<feBlend mode="normal" in="SourceGraphic" in2="effect1_dropShadow_9_78" result="shape"/>
</filter>
<filter id="filter11_d_9_78" x="70" y="254" width="27" height="157" filterUnits="userSpaceOnUse" color-interpolation-filters="sRGB">
<feFlood flood-opacity="0" result="BackgroundImageFix"/>
<feColorMatrix in="SourceAlpha" type="matrix" values="0 0 0 0 0 0 0 0 0 0 0 0 0 0 0 0 0 0 127 0" result="hardAlpha"/>
<feOffset dx="6" dy="7"/>
<feGaussianBlur stdDeviation="2"/>
<feComposite in2="hardAlpha" operator="out"/>
<feColorMatrix type="matrix" values="0 0 0 0 0 0 0 0 0 0 0 0 0 0 0 0 0 0 0.42 0"/>
<feBlend mode="normal" in2="BackgroundImageFix" result="effect1_dropShadow_9_78"/>
<feBlend mode="normal" in="SourceGraphic" in2="effect1_dropShadow_9_78" result="shape"/>
</filter>
<filter id="filter12_d_9_78" x="439" y="420" width="46" height="47" filterUnits="userSpaceOnUse" color-interpolation-filters="sRGB">
<feFlood flood-opacity="0" result="BackgroundImageFix"/>
<feColorMatrix in="SourceAlpha" type="matrix" values="0 0 0 0 0 0 0 0 0 0 0 0 0 0 0 0 0 0 127 0" result="hardAlpha"/>
<feOffset dx="6" dy="7"/>
<feGaussianBlur stdDeviation="2"/>
<feComposite in2="hardAlpha" operator="out"/>
<feColorMatrix type="matrix" values="0 0 0 0 0 0 0 0 0 0 0 0 0 0 0 0 0 0 0.42 0"/>
<feBlend mode="normal" in2="BackgroundImageFix" result="effect1_dropShadow_9_78"/>
<feBlend mode="normal" in="SourceGraphic" in2="effect1_dropShadow_9_78" result="shape"/>
</filter>
<filter id="filter13_d_9_78" x="51" y="34.5" width="61.8086" height="66" filterUnits="userSpaceOnUse" color-interpolation-filters="sRGB">
<feFlood flood-opacity="0" result="BackgroundImageFix"/>
<feColorMatrix in="SourceAlpha" type="matrix" values="0 0 0 0 0 0 0 0 0 0 0 0 0 0 0 0 0 0 127 0" result="hardAlpha"/>
<feOffset dx="6" dy="7"/>
<feGaussianBlur stdDeviation="2"/>
<feComposite in2="hardAlpha" operator="out"/>
<feColorMatrix type="matrix" values="0 0 0 0 0 0 0 0 0 0 0 0 0 0 0 0 0 0 0.42 0"/>
<feBlend mode="normal" in2="BackgroundImageFix" result="effect1_dropShadow_9_78"/>
<feBlend mode="normal" in="SourceGraphic" in2="effect1_dropShadow_9_78" result="shape"/>
</filter>
<filter id="filter14_d_9_78" x="53.5" y="414.5" width="63.66" height="62.5" filterUnits="userSpaceOnUse" color-interpolation-filters="sRGB">
<feFlood flood-opacity="0" result="BackgroundImageFix"/>
<feColorMatrix in="SourceAlpha" type="matrix" values="0 0 0 0 0 0 0 0 0 0 0 0 0 0 0 0 0 0 127 0" result="hardAlpha"/>
<feOffset dx="6" dy="7"/>
<feGaussianBlur stdDeviation="2"/>
<feComposite in2="hardAlpha" operator="out"/>
<feColorMatrix type="matrix" values="0 0 0 0 0 0 0 0 0 0 0 0 0 0 0 0 0 0 0.42 0"/>
<feBlend mode="normal" in2="BackgroundImageFix" result="effect1_dropShadow_9_78"/>
<feBlend mode="normal" in="SourceGraphic" in2="effect1_dropShadow_9_78" result="shape"/>
</filter>
<filter id="filter15_d_9_78" x="660" y="321" width="61.8086" height="66" filterUnits="userSpaceOnUse" color-interpolation-filters="sRGB">
<feFlood flood-opacity="0" result="BackgroundImageFix"/>
<feColorMatrix in="SourceAlpha" type="matrix" values="0 0 0 0 0 0 0 0 0 0 0 0 0 0 0 0 0 0 127 0" result="hardAlpha"/>
<feOffset dx="6" dy="7"/>
<feGaussianBlur stdDeviation="2"/>
<feComposite in2="hardAlpha" operator="out"/>
<feColorMatrix type="matrix" values="0 0 0 0 0 0 0 0 0 0 0 0 0 0 0 0 0 0 0.42 0"/>
<feBlend mode="normal" in2="BackgroundImageFix" result="effect1_dropShadow_9_78"/>
<feBlend mode="normal" in="SourceGraphic" in2="effect1_dropShadow_9_78" result="shape"/>
</filter>
<filter id="filter16_d_9_78" x="660.883" y="414.951" width="58.6171" height="66.0487" filterUnits="userSpaceOnUse" color-interpolation-filters="sRGB">
<feFlood flood-opacity="0" result="BackgroundImageFix"/>
<feColorMatrix in="SourceAlpha" type="matrix" values="0 0 0 0 0 0 0 0 0 0 0 0 0 0 0 0 0 0 127 0" result="hardAlpha"/>
<feOffset dx="6" dy="7"/>
<feGaussianBlur stdDeviation="2"/>
<feComposite in2="hardAlpha" operator="out"/>
<feColorMatrix type="matrix" values="0 0 0 0 0 0 0 0 0 0 0 0 0 0 0 0 0 0 0.42 0"/>
<feBlend mode="normal" in2="BackgroundImageFix" result="effect1_dropShadow_9_78"/>
<feBlend mode="normal" in="SourceGraphic" in2="effect1_dropShadow_9_78" result="shape"/>
</filter>
<filter id="filter17_d_9_78" x="121" y="52" width="143" height="28" filterUnits="userSpaceOnUse" color-interpolation-filters="sRGB">
<feFlood flood-opacity="0" result="BackgroundImageFix"/>
<feColorMatrix in="SourceAlpha" type="matrix" values="0 0 0 0 0 0 0 0 0 0 0 0 0 0 0 0 0 0 127 0" result="hardAlpha"/>
<feOffset dx="6" dy="7"/>
<feGaussianBlur stdDeviation="2"/>
<feComposite in2="hardAlpha" operator="out"/>
<feColorMatrix type="matrix" values="0 0 0 0 0 0 0 0 0 0 0 0 0 0 0 0 0 0 0.42 0"/>
<feBlend mode="normal" in2="BackgroundImageFix" result="effect1_dropShadow_9_78"/>
<feBlend mode="normal" in="SourceGraphic" in2="effect1_dropShadow_9_78" result="shape"/>
</filter>
<filter id="filter18_d_9_78" x="321" y="50.5" width="145" height="105.953" filterUnits="userSpaceOnUse" color-interpolation-filters="sRGB">
<feFlood flood-opacity="0" result="BackgroundImageFix"/>
<feColorMatrix in="SourceAlpha" type="matrix" values="0 0 0 0 0 0 0 0 0 0 0 0 0 0 0 0 0 0 127 0" result="hardAlpha"/>
<feOffset dx="6" dy="7"/>
<feGaussianBlur stdDeviation="2"/>
<feComposite in2="hardAlpha" operator="out"/>
<feColorMatrix type="matrix" values="0 0 0 0 0 0 0 0 0 0 0 0 0 0 0 0 0 0 0.42 0"/>
<feBlend mode="normal" in2="BackgroundImageFix" result="effect1_dropShadow_9_78"/>
<feBlend mode="normal" in="SourceGraphic" in2="effect1_dropShadow_9_78" result="shape"/>
</filter>
<filter id="filter19_d_9_78" x="251.007" y="341.035" width="186.168" height="119.463" filterUnits="userSpaceOnUse" color-interpolation-filters="sRGB">
<feFlood flood-opacity="0" result="BackgroundImageFix"/>
<feColorMatrix in="SourceAlpha" type="matrix" values="0 0 0 0 0 0 0 0 0 0 0 0 0 0 0 0 0 0 127 0" result="hardAlpha"/>
<feOffset dx="6" dy="7"/>
<feGaussianBlur stdDeviation="2"/>
<feComposite in2="hardAlpha" operator="out"/>
<feColorMatrix type="matrix" values="0 0 0 0 0 0 0 0 0 0 0 0 0 0 0 0 0 0 0.42 0"/>
<feBlend mode="normal" in2="BackgroundImageFix" result="effect1_dropShadow_9_78"/>
<feBlend mode="normal" in="SourceGraphic" in2="effect1_dropShadow_9_78" result="shape"/>
</filter>
<linearGradient id="paint0_linear_9_78" x1="860.295" y1="642.014" x2="5.15156" y2="-108.025" gradientUnits="userSpaceOnUse">
<stop stop-color="#36464E"/>
<stop offset="1" stop-color="#536067"/>
</linearGradient>
<linearGradient id="paint1_linear_9_78" x1="119.5" y1="380" x2="109.5" y2="397" gradientUnits="userSpaceOnUse">
<stop stop-color="#40E4E3"/>
<stop offset="1" stop-color="white"/>
</linearGradient>
<linearGradient id="paint2_linear_9_78" x1="119" y1="334" x2="118" y2="424.5" gradientUnits="userSpaceOnUse">
<stop stop-color="#40E4E3"/>
<stop offset="1" stop-color="#BFBFBF"/>
</linearGradient>
<linearGradient id="paint3_linear_9_78" x1="76.9043" y1="34.5" x2="76.9043" y2="89.5" gradientUnits="userSpaceOnUse">
<stop stop-color="#40E4E3"/>
<stop offset="1" stop-color="#237E7D"/>
</linearGradient>
<linearGradient id="paint4_linear_9_78" x1="80.33" y1="414.5" x2="80.33" y2="466" gradientUnits="userSpaceOnUse">
<stop stop-color="#40E4E3"/>
<stop offset="1" stop-color="#237E7D"/>
</linearGradient>
<linearGradient id="paint5_linear_9_78" x1="685.904" y1="321" x2="685.904" y2="376" gradientUnits="userSpaceOnUse">
<stop stop-color="#40E4E3"/>
<stop offset="1" stop-color="#237E7D"/>
</linearGradient>
<linearGradient id="paint6_linear_9_78" x1="685.191" y1="414.951" x2="685.191" y2="470" gradientUnits="userSpaceOnUse">
<stop stop-color="#40E4E3"/>
<stop offset="1" stop-color="#237E7D"/>
</linearGradient>
</defs>
</svg>
