<?xml version="1.0" encoding="UTF-8"?>
<svg id="_レイヤー_2" data-name="レイヤー 2" xmlns="http://www.w3.org/2000/svg" viewBox="0 0 290.44 58.56">
  <defs>
    <style>
      .cls-1 {
        fill: #378dcd;
      }

      .cls-2 {
        fill: #231815;
      }
    </style>
  </defs>
  <g id="_レイヤー_1-2" data-name="レイヤー 1">
    <g>
      <path class="cls-2" d="M17.34,0c3.85,0,7.29.87,10.34,2.61,2.89,1.66,4.34,3.43,4.34,5.3,0,.94-.35,1.76-1.05,2.46-.8.8-1.76,1.2-2.87,1.2-1,0-2.02-.5-3.08-1.49-2.29-2.17-4.85-3.25-7.71-3.25-2.27,0-4.1.39-5.51,1.17-1.62.9-2.43,2.22-2.43,3.96,0,1.54.73,2.83,2.2,3.87,1.09.78,3.7,1.79,7.82,3.02,5.35,1.58,9,3.15,10.96,4.72,2.91,2.34,4.37,5.35,4.37,9.02,0,4.3-1.72,7.66-5.16,10.08-3.11,2.17-7.14,3.25-12.1,3.25-4.69,0-8.82-1.13-12.39-3.4-3.38-2.15-5.07-4.24-5.07-6.27,0-.84.27-1.59.82-2.26.76-.96,1.73-1.44,2.9-1.44.84,0,1.61.26,2.31.79.21.18.63.58,1.26,1.2,2.95,2.89,6.34,4.34,10.17,4.34,2.56,0,4.63-.48,6.21-1.44,1.72-1.02,2.58-2.45,2.58-4.31s-.9-3.42-2.7-4.57c-1.21-.76-3.94-1.81-8.17-3.13-4.49-1.41-7.81-2.86-9.96-4.37-2.71-1.91-4.07-4.79-4.07-8.61,0-3.11,1.1-5.77,3.31-8C7.59,1.48,11.82,0,17.34,0Z"/>
      <path class="cls-2" d="M48.85,18.43c1.11-1.5,2.43-2.7,3.96-3.57,2.13-1.25,4.38-1.88,6.74-1.88,3.54,0,6.36,1.19,8.47,3.57,1.88,2.09,2.81,5.21,2.81,9.38v16.32c0,.78-.23,1.45-.7,1.99-.74.84-1.79,1.26-3.13,1.26-1.52,0-2.63-.53-3.31-1.58-.31-.49-.47-1.04-.47-1.67v-15.47c0-1.72-.27-3.16-.82-4.34-.88-1.88-2.31-2.81-4.31-2.81-2.11,0-4.12,1.09-6.04,3.28-1.52,1.72-2.29,3.49-2.29,5.3v14.03c0,.84-.27,1.54-.82,2.11-.74.76-1.74,1.14-2.99,1.14-1.54,0-2.66-.53-3.34-1.58-.31-.47-.47-1.03-.47-1.67v-25.93c0-.78.19-1.44.56-1.96.55-.8,1.39-1.2,2.52-1.2,1.8,0,2.87.98,3.22,2.93l.41,2.34Z"/>
      <path class="cls-2" d="M102.1,17.29l.18-1.9c.14-1.6,1.18-2.4,3.13-2.4,1.56,0,2.64.6,3.22,1.79.2.41.29.87.29,1.38v26.16c0,.66-.15,1.25-.44,1.76-.59.96-1.56,1.44-2.93,1.44-1.89,0-2.99-.99-3.28-2.96l-.32-2.02c-1.93,3.48-5.24,5.21-9.93,5.21-5,0-8.85-2.01-11.54-6.04-1.91-2.85-2.87-6.31-2.87-10.37,0-3.85.98-7.2,2.93-10.05,1.6-2.36,3.67-4.08,6.21-5.16,1.76-.76,3.6-1.14,5.54-1.14,4.34,0,7.61,1.44,9.81,4.31ZM101.49,29.82v-2.34c0-2.17-.8-4.06-2.4-5.68-1.62-1.64-3.5-2.46-5.62-2.46-2.46,0-4.44,1.03-5.95,3.08-1.33,1.82-1.99,4.11-1.99,6.88,0,2.38.47,4.42,1.41,6.12,1.45,2.6,3.6,3.9,6.47,3.9,1.78,0,3.4-.67,4.86-2.02,2.15-1.97,3.22-4.46,3.22-7.47Z"/>
      <path class="cls-2" d="M125.85,41.78v13.56c0,.76-.23,1.42-.7,1.96-.72.84-1.76,1.26-3.11,1.26-1.5,0-2.6-.53-3.28-1.58-.31-.47-.47-1.02-.47-1.64V16.41c0-.88.21-1.58.64-2.11.57-.72,1.41-1.08,2.52-1.08,1.78,0,2.84.94,3.19,2.81l.47,2.52c.76-1.48,1.83-2.69,3.19-3.6,1.97-1.31,4.28-1.96,6.91-1.96,4.98,0,8.82,2.01,11.51,6.04,1.91,2.85,2.87,6.32,2.87,10.4s-1.04,7.43-3.11,10.34c-2.83,3.98-6.68,5.98-11.54,5.98-4,0-7.04-1.32-9.11-3.96ZM125.79,28.89v2.31c0,2.23.81,4.15,2.43,5.77,1.58,1.6,3.44,2.4,5.57,2.4,2.5,0,4.5-1.04,6.01-3.13,1.31-1.82,1.96-4.08,1.96-6.8s-.62-5.03-1.85-6.83c-1.48-2.15-3.51-3.22-6.06-3.22-2.19,0-4.08.96-5.68,2.87-1.58,1.89-2.37,4.1-2.37,6.62Z"/>
      <path class="cls-1" d="M165.09,26.46v15.73c0,.68-.2,1.29-.59,1.82-.76,1-1.94,1.49-3.54,1.49-1.39,0-2.47-.39-3.25-1.17-.57-.57-.85-1.28-.85-2.14V7.21c0-4.12,2.06-6.18,6.18-6.18h22.88c.74,0,1.37.25,1.88.76.7.68,1.05,1.6,1.05,2.75,0,1.48-.51,2.55-1.52,3.19-.41.25-.88.38-1.41.38h-19.75c-.72,0-1.08.36-1.08,1.08v10.43h18.05c.7,0,1.3.23,1.79.7.7.68,1.05,1.6,1.05,2.75,0,1.41-.5,2.41-1.49,3.02-.37.23-.82.35-1.35.35h-18.05Z"/>
      <path class="cls-1" d="M203.48,3.6v38.58c0,.8-.24,1.48-.73,2.02-.74.86-1.79,1.29-3.13,1.29-1.52,0-2.64-.54-3.34-1.61-.31-.49-.47-1.05-.47-1.7V3.6c0-1.15.51-2.02,1.52-2.61.7-.41,1.46-.62,2.29-.62,1.02,0,1.9.27,2.67.82.8.59,1.2,1.39,1.2,2.4Z"/>
      <path class="cls-1" d="M226.76,12.8c4.41,0,8.05,1.46,10.9,4.39,2.99,3.07,4.48,7.09,4.48,12.07,0,3.93-.92,7.29-2.75,10.11-2.83,4.32-7.06,6.47-12.69,6.47-4.92,0-8.81-1.72-11.66-5.16-2.5-2.99-3.75-6.81-3.75-11.46,0-4.98,1.48-8.98,4.45-12.01,2.87-2.95,6.54-4.42,11.02-4.42ZM226.67,19.16c-2.48,0-4.43,1.07-5.86,3.22-1.19,1.8-1.79,4.07-1.79,6.83,0,2.09.33,3.92,1,5.48,1.33,3.09,3.57,4.63,6.74,4.63,2.52,0,4.47-1.05,5.86-3.16,1.19-1.82,1.79-4.13,1.79-6.94s-.63-5.18-1.9-6.97c-1.43-2.05-3.37-3.08-5.83-3.08Z"/>
      <path class="cls-2" d="M257.98,35.77l5.3-19.07c.64-2.32,2.11-3.49,4.39-3.49s3.84,1.16,4.48,3.49l5.27,19.07,5.51-19.69c.55-1.93,1.7-2.9,3.46-2.9.62,0,1.26.15,1.9.44,1.43.66,2.14,1.67,2.14,3.02,0,.47-.08.95-.23,1.44l-7.5,23.7c-.78,2.48-2.4,3.72-4.86,3.72s-4.26-1.39-5.04-4.16l-5.1-17.99-5.1,17.99c-.78,2.77-2.46,4.16-5.04,4.16s-4.08-1.24-4.86-3.72l-7.5-23.7c-.16-.51-.23-1.01-.23-1.49,0-1.27.67-2.24,2.02-2.9.7-.33,1.39-.5,2.05-.5,1.74,0,2.88.97,3.43,2.9l5.51,19.69Z"/>
    </g>
  </g>
</svg>