<svg width="622" height="84" viewBox="0 0 622 84" fill="none" xmlns="http://www.w3.org/2000/svg">
<path d="M30.078 83V16.895H0.360001V1.09999H78.165V16.895H47.628V83H30.078ZM88.1584 83L126.183 1.09999H143.265L181.173 83H162.804L139.989 33.86C139.287 32.3 138.585 30.74 137.883 29.18C137.181 27.542 136.518 25.904 135.894 24.266C135.27 22.628 134.646 20.99 134.022 19.352C133.476 17.714 132.969 16.115 132.501 14.555L136.362 14.438C135.894 16.154 135.348 17.87 134.724 19.586C134.1 21.224 133.437 22.862 132.735 24.5C132.111 26.06 131.448 27.659 130.746 29.297C130.044 30.857 129.303 32.495 128.523 34.211L105.825 83H88.1584ZM105.474 66.62L111.441 52.463H157.188L160.581 66.62H105.474ZM205.305 83V1.09999H221.334L256.668 48.017L247.191 47.9L282.525 1.09999H298.32V83H281.121V54.101C281.121 47.471 281.277 41.309 281.589 35.615C281.901 29.921 282.525 24.188 283.461 18.416L285.333 24.266L255.732 61.94H248.01L218.175 24.149L220.164 18.416C221.1 24.11 221.724 29.804 222.036 35.498C222.348 41.114 222.504 47.315 222.504 54.101V83H205.305ZM333.73 83V1.09999H400.888V16.544H350.812V67.556H401.707V83H333.73ZM342.856 48.719V33.743H395.272V48.719H342.856ZM434.049 83V1.09999H478.509C484.281 1.09999 489.312 2.231 493.602 4.493C497.97 6.677 501.363 9.719 503.781 13.619C506.199 17.441 507.408 21.887 507.408 26.957C507.408 32.105 506.082 36.707 503.43 40.763C500.856 44.819 497.346 48.056 492.9 50.474C488.454 52.892 483.501 54.101 478.041 54.101H451.014V83H434.049ZM491.145 83L465.288 46.028L483.657 43.103L511.854 83.117L491.145 83ZM451.014 39.827H476.403C478.821 39.827 481.044 39.32 483.072 38.306C485.1 37.214 486.66 35.771 487.752 33.977C488.922 32.105 489.507 29.999 489.507 27.659C489.507 25.397 488.883 23.408 487.635 21.692C486.465 19.976 484.788 18.65 482.604 17.714C480.498 16.778 478.197 16.31 475.701 16.31H451.014V39.827ZM581.451 83.702C573.417 83.702 566.397 82.064 560.391 78.788C554.385 75.512 549.666 71.027 546.234 65.333C542.88 59.639 541.203 53.165 541.203 45.911V0.982996H558.87V45.326C558.87 49.694 559.845 53.555 561.795 56.909C563.823 60.263 566.514 62.915 569.868 64.865C573.3 66.815 577.161 67.79 581.451 67.79C585.897 67.79 589.875 66.815 593.385 64.865C596.895 62.915 599.625 60.263 601.575 56.909C603.603 53.555 604.617 49.694 604.617 45.326V0.982996H621.699V45.911C621.699 53.165 619.983 59.639 616.551 65.333C613.197 71.027 608.478 75.512 602.394 78.788C596.388 82.064 589.407 83.702 581.451 83.702Z" fill="url(#paint0_linear_1_45)"/>
<defs>
<linearGradient id="paint0_linear_1_45" x1="315" y1="-34" x2="315" y2="112" gradientUnits="userSpaceOnUse">
<stop stop-color="#123C43"/>
<stop offset="1" stop-color="#294B56"/>
</linearGradient>
</defs>
</svg>
