<svg width="1200" height="1000" viewBox="0 0 1200 1000" xmlns="http://www.w3.org/2000/svg">
  <!-- 背景色 -->
  <rect width="100%" height="100%" fill="#f0f2f5" />

  <!-- シャドウ用フィルター -->
  <defs>
    <filter id="cardShadow" x="0" y="0" width="200%" height="200%">
      <feOffset result="offOut" in="SourceGraphic" dx="0" dy="4" />
      <feGaussianBlur result="blurOut" in="offOut" stdDeviation="8" />
      <feBlend in="SourceGraphic" in2="blurOut" mode="normal" />
    </filter>
    <!-- ヘッダー用のグラデーション -->
    <linearGradient id="headerGradient" x1="0" y1="0" x2="1" y2="0">
      <stop offset="0%" stop-color="#d8e7ff"/>
      <stop offset="100%" stop-color="#adcfff"/>
    </linearGradient>
    <!-- ボタン用グラデーション -->
    <linearGradient id="buttonGradient" x1="0" y1="0" x2="1" y2="0">
      <stop offset="0%" stop-color="#4f9dff"/>
      <stop offset="100%" stop-color="#216de7"/>
    </linearGradient>
  </defs>

  <!-- メインコンテナ（角丸＋シャドウ） -->
  <g filter="url(#cardShadow)">
    <rect x="100" y="80" width="1000" height="840" fill="#ffffff" rx="12" ry="12"/>
  </g>

  <!-- ヘッダー領域（上部帯＋タイトル） -->
  <rect x="100" y="80" width="1000" height="90" fill="url(#headerGradient)" rx="12" ry="12" />
  <text x="140" y="140" font-family="sans-serif" font-size="26" fill="#333" font-weight="bold">
    名刺管理システム
  </text>
  <!-- 右上ナビの例 -->
  <text x="960" y="140" font-family="sans-serif" font-size="14" fill="#333">
    ログアウト
  </text>

  <!-- ページタイトル -->
  <text x="120" y="210" font-family="sans-serif" font-size="28" fill="#333" font-weight="bold">
    名刺登録
  </text>

  <!-- アップロード/プレビュー枠 -->
  <!-- 背景パネル -->
  <rect x="120" y="240" width="460" height="320" fill="#fafafa" stroke="#ddd" stroke-width="1" rx="8" ry="8"/>
  
  <!-- 以下、アップロード時 or プレビュー時で表示切り替えを想定（ここでは両方重ねて例示） -->
  <!-- プレビュー用のダミー画像エリア -->
  <rect x="120" y="240" width="460" height="320" fill="#eee" rx="8" ry="8"/>
  <text x="135" y="270" font-family="sans-serif" font-size="14" fill="#666">
    画像プレビューエリア（アップロード後表示）
  </text>

  <!-- アップロードのガイド（ダッシュ枠＆アイコン） -->
  <rect x="120" y="240" width="460" height="320" fill="none" stroke="#ccc" stroke-width="2" stroke-dasharray="6 6" rx="8" ry="8" />
  <!-- 雲アイコン -->
  <path d="
    M 330,370
    c 0,-20 16,-36 36,-36
    c 3,0 6,0.3 9,1
    c 6,-14 20,-24 36,-24
    c 22,0 40,18 40,40
    c 0,1 0,2 -0.1,3
    c 0.7,-0.1 1.4,-0.1 2.1,-0.1
    c 16,0 30,9 36,22
    c 1.4,3 2.1,6.3 2.1,9.7
    c 0,14 -11,25 -25,25
    h -134
    c -12,0 -22,-10 -22,-22
    c 0,-12 10,-22 22,-22z
  " fill="#e0e7ff" stroke="#aaa" stroke-width="2"/>

  <!-- 上矢印 -->
  <path d="
    M 340,380
    l 0,-40
    l 20,0
    l 0,40
    l 10,0
    l -20,20
    l -20,-20
    z
  " fill="#9aaee0"/>

  <text x="350" y="425" font-family="sans-serif" font-size="16" fill="#666" text-anchor="middle">
    <tspan x="350" dy="0">クリック</tspan>
    <tspan x="350" dy="22">またはドラッグ＆ドロップ</tspan>
  </text>

  <!-- 個人情報セクション -->
  <rect x="120" y="580" width="460" height="200" fill="#fafafa" stroke="#ddd" stroke-width="1" rx="8" ry="8" />
  <text x="140" y="610" font-family="sans-serif" font-size="18" fill="#333" font-weight="bold">
    個人情報
  </text>
  <!-- フォーム項目 -->
  <!-- 名前 -->
  <text x="140" y="645" font-family="sans-serif" font-size="14" fill="#333">名前</text>
  <rect x="200" y="625" width="260" height="30" fill="#fff" stroke="#ccc" rx="4" ry="4"/>
  <!-- 役職 -->
  <text x="140" y="685" font-family="sans-serif" font-size="14" fill="#333">役職</text>
  <rect x="200" y="665" width="260" height="30" fill="#fff" stroke="#ccc" rx="4" ry="4"/>
  <!-- メール -->
  <text x="140" y="725" font-family="sans-serif" font-size="14" fill="#333">メールアドレス</text>
  <rect x="240" y="705" width="220" height="30" fill="#fff" stroke="#ccc" rx="4" ry="4"/>

  <!-- 会社情報セクション -->
  <rect x="600" y="240" width="480" height="540" fill="#fafafa" stroke="#ddd" stroke-width="1" rx="8" ry="8" />
  <text x="620" y="270" font-family="sans-serif" font-size="18" fill="#333" font-weight="bold">
    会社情報
  </text>
  <!-- 会社名 -->
  <text x="620" y="310" font-family="sans-serif" font-size="14" fill="#333">会社名</text>
  <rect x="680" y="290" width="260" height="30" fill="#fff" stroke="#ccc" rx="4" ry="4"/>
  <!-- 部署 -->
  <text x="620" y="350" font-family="sans-serif" font-size="14" fill="#333">部署</text>
  <rect x="680" y="330" width="260" height="30" fill="#fff" stroke="#ccc" rx="4" ry="4"/>
  <!-- 会社住所 -->
  <text x="620" y="390" font-family="sans-serif" font-size="14" fill="#333">会社住所</text>
  <rect x="700" y="370" width="320" height="30" fill="#fff" stroke="#ccc" rx="4" ry="4"/>
  <!-- 他の項目用の空欄例 -->
  <text x="620" y="430" font-family="sans-serif" font-size="14" fill="#333">他の項目1</text>
  <rect x="720" y="410" width="280" height="30" fill="#fff" stroke="#ccc" rx="4" ry="4"/>
  <text x="620" y="470" font-family="sans-serif" font-size="14" fill="#333">他の項目2</text>
  <rect x="720" y="450" width="280" height="30" fill="#fff" stroke="#ccc" rx="4" ry="4"/>
  <text x="620" y="510" font-family="sans-serif" font-size="14" fill="#333">他の項目3</text>
  <rect x="720" y="490" width="280" height="30" fill="#fff" stroke="#ccc" rx="4" ry="4"/>
  
  <!-- 最下部にボタンを配置（右下） -->
  <rect x="900" y="710" width="150" height="50" fill="url(#buttonGradient)" rx="8" ry="8" />
  <text x="975" y="745" font-family="sans-serif" font-size="18" fill="#fff" font-weight="bold" text-anchor="middle">
    登録
  </text>
</svg>
